<svg width="72" height="48" viewBox="0 0 72 48" fill="none" xmlns="http://www.w3.org/2000/svg">
<path d="M50.2604 48C44.277 48 39.4238 46.8406 35.7008 44.5217C32.0443 42.2029 29.518 39.1222 28.1219 35.2795L25.4294 36.2733C26.892 40.2484 29.2188 43.3954 32.41 45.7143C31.2133 46.1781 29.8172 46.5093 28.2216 46.7081C26.6925 46.9068 25.097 47.0062 23.4349 47.0062C18.2493 47.0062 13.8947 46.1118 10.3712 44.323C6.91413 42.5342 4.32133 40.0828 2.5928 36.9689C0.864266 33.8551 0 30.3106 0 26.3354C0 21.8302 0.864266 17.9213 2.5928 14.6087C4.32133 11.2961 6.6482 8.57971 9.57341 6.45963C12.4986 4.27329 15.8227 2.6501 19.5457 1.59006C23.2687 0.530021 27.1579 0 31.2133 0C33.1413 0 34.903 0.0993788 36.4986 0.298134C38.0942 0.430641 39.3241 0.761905 40.1884 1.29193C36.1994 2.68323 33.3407 4.77018 31.6122 7.55279C29.8837 10.2691 29.4183 13.118 30.2161 16.0994C32.144 10.9317 35.6676 7.12215 40.7867 4.67081C45.9058 2.21946 52.0222 0.993789 59.1357 0.993789C60.5983 0.993789 62.0609 1.06004 63.5235 1.19254C65.0526 1.2588 66.5485 1.42443 68.0111 1.68944C68.7424 3.54451 69.108 5.69772 69.108 8.14907C69.1745 10.5342 68.9418 12.6211 68.41 14.4099C66.2161 14.2774 64.0886 14.2112 62.0277 14.2112C60.0332 14.2112 58.1053 14.5093 56.2438 15.1056L57.0415 17.8882C57.7064 17.6894 58.3712 17.5569 59.036 17.4907C59.7008 17.4244 60.4321 17.3913 61.2299 17.3913C64.1551 17.3913 66.6814 18.5507 68.8089 20.8696C70.9363 23.1222 72 26.2029 72 30.1118C72 34.2195 71.0028 37.5983 69.0083 40.2484C67.0803 42.8985 64.4543 44.853 61.1302 46.1118C57.8726 47.3706 54.2493 48 50.2604 48Z" fill="black"/>
</svg>
