<svg width="72" height="48" viewBox="0 0 72 48" fill="none" xmlns="http://www.w3.org/2000/svg">
<path d="M39.6898 48C39.2244 48 38.3269 47.9669 36.9972 47.9006C35.6676 47.7681 34.2382 47.5694 32.7091 47.3044C31.9778 45.383 31.6122 43.2298 31.6122 40.8447C31.6122 38.3934 31.8449 36.1408 32.3102 34.087H39.0914V31.205H31.313C30.8476 32.795 30.3823 34.5176 29.9169 36.3727C29.4515 38.1615 28.687 39.8841 27.6233 41.5404C26.5596 43.1304 24.8643 44.4555 22.5374 45.5155C20.277 46.5093 17.0526 47.0062 12.8643 47.0062C11.4017 47.0062 9.93906 46.9731 8.47645 46.9068C7.01385 46.7743 5.51801 46.5756 3.98892 46.3106C3.25762 44.3892 2.89197 42.236 2.89197 39.8509C2.89197 37.4658 3.12465 35.3789 3.59003 33.5901C5.78393 33.7226 7.87812 33.7888 9.87258 33.7888C11.9335 33.7888 13.8947 33.4907 15.7562 32.8944L14.9585 30.1118C14.2936 30.3106 13.6288 30.4431 12.964 30.5093C12.2992 30.5756 11.5679 30.6087 10.7701 30.6087C7.91136 30.6087 5.38504 29.4493 3.19114 27.1304C1.06371 24.8116 0 21.7308 0 17.8882C0 13.7805 0.963989 10.4017 2.89197 7.75155C4.88643 5.10145 7.51247 3.147 10.7701 1.8882C14.0942 0.6294 17.7507 0 21.7396 0C24.0665 0 26.0942 0.198757 27.8227 0.596272C29.6177 0.927534 31.1468 1.42443 32.41 2.08695C29.2853 3.61076 27.2244 5.73085 26.2271 8.4472C25.2964 11.1636 25.5956 13.8799 27.1247 16.5963C27.59 12.0911 29.651 8.38095 33.3075 5.46583C36.964 2.48447 42.0499 0.993789 48.5651 0.993789C53.8172 0.993789 58.1717 1.8882 61.6288 3.67702C65.0859 5.46584 67.6787 7.91718 69.4072 11.0311C71.1357 14.1449 72 17.6894 72 21.6646C72 26.1698 71.1357 30.0787 69.4072 33.3913C67.6787 36.7039 65.2853 39.4534 62.2271 41.6398C59.2355 43.7598 55.8116 45.3499 51.9557 46.4099C48.0997 47.47 44.0111 48 39.6898 48Z" fill="black"/>
</svg>
