<svg width="1440" height="868" viewBox="0 0 1440 868" fill="none" xmlns="http://www.w3.org/2000/svg">
<g filter="url(#filter0_d_17_2032)">
<path d="M1440.61 194.364L1440.83 220.91C1436.96 220.858 1432.69 221.711 1429.26 219.365C1424.95 216.062 1421.95 210.973 1417.24 208.224C1414.04 206.428 1410 208.125 1408.55 211.585C1403.59 222.669 1402.52 235.837 1394.66 245.352C1381.96 261.721 1356 263.013 1341.84 248.035C1335.76 241.186 1329.63 231.625 1332.89 221.723C1335.92 215.096 1345.21 212.788 1350.85 216.964C1355.45 221.13 1356.21 228.94 1361.94 231.92C1366.71 234.595 1372.48 232.342 1376.27 228.863C1384.07 218.116 1383.09 203.042 1391.18 192.467C1396.22 186.79 1402.94 181.936 1410.59 182.068C1421.93 180.654 1431.94 187.517 1440.61 194.364Z" fill="#2C292A" fill-opacity="0.02"/>
<path d="M1441.24 270.934L1441.46 298.326C1437.75 296.093 1433.46 294.766 1430.42 291.434C1428.03 287.867 1428.24 283.084 1429.43 279.083C1431.25 273.938 1437.17 272.981 1441.24 270.934Z" fill="#2C292A" fill-opacity="0.02"/>
<path d="M1442.84 468.295L1443.05 494.272C1436.23 496.119 1429.23 497.076 1422.36 498.694C1413.14 500.367 1403.99 503.907 1394.5 502.677C1387.19 500.142 1383.89 489.565 1388.07 482.763C1390.35 479.426 1394.69 479.115 1398.03 477.774C1412.84 473.968 1427.9 471.393 1442.84 468.295Z" fill="#2C292A" fill-opacity="0.02"/>
<path d="M1413.14 56.8147C1417.13 68.6634 1400.16 77.6169 1392.79 68.71C1387.79 61.7612 1384.06 53.9196 1379.96 46.366C1375.66 37.8668 1370.91 29.4907 1368.12 20.2623C1366.57 14.6378 1367.18 6.43979 1373.39 4.35815C1378.97 0.810281 1387.37 3.07915 1389.82 9.74477C1395.07 21.9605 1400.44 34.1845 1407.43 45.4209C1409.44 49.1475 1412.23 52.5552 1413.14 56.8147Z" fill="#2C292A" fill-opacity="0.02"/>
<path d="M1412.51 824.591C1414.53 830.865 1411.12 839.122 1404.69 840.267C1399.71 841.751 1393.28 840.505 1390.49 835.442C1388.21 830.9 1388 824.749 1391.21 820.65C1396.52 813.077 1410.13 815.286 1412.51 824.591Z" fill="#2C292A" fill-opacity="0.02"/>
<path d="M1387.29 696.064C1390 704.337 1382.48 712.351 1374.94 712.135C1370.88 711.469 1367.74 708.266 1364.38 706.022C1349.05 693.711 1334.2 680.569 1321.19 665.509C1316.32 659.221 1319.99 649.233 1326.73 646.467C1332.08 643.095 1337.56 647.282 1341.26 651.215C1353.92 664.191 1367.21 676.518 1381.38 687.614C1384.03 689.745 1386.7 692.418 1387.29 696.064Z" fill="#2C292A" fill-opacity="0.02"/>
<path d="M1380.52 577.72C1380.03 581.558 1379.34 586.41 1375.56 588.196C1368.17 593.865 1354.9 587.864 1356.47 577.277C1356.12 568.084 1367.4 562.468 1374.33 567.249C1378.42 569.028 1380.22 573.226 1380.52 577.72Z" fill="#2C292A" fill-opacity="0.02"/>
<path d="M1377.61 392.72C1379.78 402.606 1369.15 411.371 1360.59 407.725C1355.48 406.156 1354.39 399.645 1353.56 394.925C1351.11 378.724 1346.98 362.831 1345.18 346.533C1344.84 336.071 1359 329.191 1365.92 337.016C1369.26 341.642 1369.29 347.987 1370.59 353.438C1372.51 366.609 1375.79 379.539 1377.61 392.72Z" fill="#2C292A" fill-opacity="0.02"/>
<path d="M1354.75 104.168C1356.09 110.374 1352.47 117.879 1346.3 118.94C1326.66 122.342 1307.15 126.572 1287.6 130.488C1280.22 133.159 1271.71 126.541 1272.27 118.195C1270.66 111.532 1276.61 106.629 1282.11 105.739C1302.32 101.578 1322.47 96.3409 1343.03 94.6599C1348.41 93.4492 1354.25 98.3963 1354.75 104.168Z" fill="#2C292A" fill-opacity="0.02"/>
<path d="M1323.6 523.717C1324.71 528.196 1322.9 533.194 1319.3 535.706C1302.88 547.128 1278.23 543.26 1266.25 526.454C1256.63 514.19 1254.34 495.569 1261.38 481.37C1264.22 475.159 1269.55 470.675 1272.1 464.319C1274.1 459.715 1272.5 453.493 1268.13 451.128C1263.63 447.863 1257.83 449.371 1252.93 450.817C1248.46 452.388 1242.78 454.189 1238.98 450.155C1234.43 446.844 1233.69 440.533 1234.55 435.174C1236.49 430.138 1241.54 427.882 1245.94 425.934C1260.42 420.366 1277.93 424.355 1288.39 436.557C1292.06 441.696 1295.74 446.972 1298.06 452.986C1299.12 461.787 1295.81 470.457 1292.17 478.174C1288.49 485.808 1280.81 492.223 1281.55 501.624C1281.64 510.056 1289.24 517.14 1297.07 516.811C1303.12 515.944 1308.97 511.751 1315.24 513.283C1319.21 515.164 1323.08 518.875 1323.6 523.717Z" fill="#2C292A" fill-opacity="0.02"/>
<path d="M1319.35 761.818C1321.64 775.75 1301.09 779.886 1296.59 768.179C1292.66 760.587 1298.54 749.524 1306.89 750.515C1313.03 749.372 1319.55 755.104 1319.35 761.818Z" fill="#2C292A" fill-opacity="0.02"/>
<path d="M1273.41 326.35C1273.99 332.175 1269.93 337.789 1264.62 339.009C1259.03 341.692 1254.04 336.684 1249.87 333.59C1235.21 321.771 1221.09 309.111 1208.26 295.079C1204.28 290.881 1203.26 283.431 1207.07 278.729C1209.94 273.125 1218.57 270.564 1223.13 275.337C1235.48 287.349 1247.5 299.852 1261.1 310.309C1266.16 314.416 1273.21 318.627 1273.41 326.35Z" fill="#2C292A" fill-opacity="0.02"/>
<path d="M1265.73 203.259C1266.95 208.656 1264.34 214.746 1259.61 217.055C1254.84 218.068 1248.59 219.212 1245.23 214.309C1239.58 208.837 1241.36 197.457 1248.7 194.677C1255.11 191.095 1265.26 194.922 1265.73 203.259Z" fill="#2C292A" fill-opacity="0.02"/>
<path d="M1262.99 599.553C1265.1 606.139 1262.36 615.264 1255.28 616.332C1247.24 619.339 1237.56 611.351 1239.82 602.128C1241.29 590.181 1258.95 588.964 1262.99 599.553Z" fill="#2C292A" fill-opacity="0.02"/>
<path d="M1262.95 714.53C1264.82 726.884 1259.09 740.125 1248.95 746.468C1241.69 751.887 1232.04 752.773 1223.57 750.707C1211.66 747.023 1201.81 737.464 1189.18 736.047C1187.33 735.813 1186.03 737.562 1185.11 739.04C1183.19 746.256 1190.23 751.028 1190.24 757.952C1190.74 764.863 1185.17 772.641 1178.23 771.924C1174.28 772.48 1171.38 768.898 1169.03 766.066C1160.97 753.872 1157.5 736.161 1165.71 723.139C1170.57 713.831 1181.24 710.252 1190.69 710.305C1203.59 711.324 1214.45 719.542 1226.04 724.792C1229.69 726.198 1234.71 727.188 1237.35 723.378C1241.1 719.302 1236.65 713.443 1235.32 709.361C1232.48 703.168 1235.43 694.61 1241.51 692.162C1245.56 690.07 1250.88 691.048 1253.79 694.777C1258.63 700.118 1262.08 707.116 1262.95 714.53Z" fill="#2C292A" fill-opacity="0.02"/>
<path d="M1209.03 150.422C1210.55 154.576 1209.11 159.139 1206.38 162.214C1193.06 172.692 1173.7 172.607 1160.15 162.526C1141.87 149.991 1136.83 119.631 1151.55 102.07C1154.53 96.9059 1160.54 91.6258 1158.24 84.8394C1157.14 80.8389 1153.66 77.777 1149.77 77.3389C1142.79 75.8956 1136.57 80.5061 1129.71 80.3768C1121.45 78.6769 1116.05 65.7819 1122.77 59.1996C1126.41 54.913 1132.05 53.6728 1137.02 52.1527C1154.16 47.814 1174.5 57.473 1180.41 75.725C1183.09 85.5429 1183.59 97.2356 1177.83 105.953C1173.5 114.226 1165.14 121.796 1167.51 132.261C1169.14 138.399 1174.33 143.71 1180.46 144.167C1186.66 145.46 1192.03 141.059 1198.02 140.524C1203.21 140.74 1207.9 145.07 1209.03 150.422Z" fill="#2C292A" fill-opacity="0.02"/>
<path d="M1204.95 388.549C1206.59 396.573 1199.11 404.063 1191.69 402.835C1184.14 402.426 1178.45 392.935 1182 385.578C1185.66 374.551 1204.37 375.846 1204.95 388.549Z" fill="#2C292A" fill-opacity="0.02"/>
<path d="M1193.2 528.418C1194.5 532.675 1193.51 537.299 1190.67 540.54C1181.16 552.128 1170.79 562.869 1161.11 574.293C1158.53 577.035 1156.14 580.402 1152.6 581.827C1144.17 584.828 1135.19 575.198 1136.89 566.32C1137.9 563.103 1140.08 560.566 1142.16 558.103C1152.1 546.925 1161.96 535.665 1171.76 524.34C1173.62 522.303 1175.59 520.034 1178.3 519.396C1184.46 517.094 1191.8 521.855 1193.2 528.418Z" fill="#2C292A" fill-opacity="0.02"/>
<path d="M1149.44 232.025C1149.25 235.944 1147.99 240.395 1144.57 242.445C1137.17 248.187 1123.98 242.103 1125.43 231.544C1124.95 221.911 1137.62 216.183 1144.37 222.272C1148.29 223.758 1148.89 228.277 1149.44 232.025Z" fill="#2C292A" fill-opacity="0.02"/>
<path d="M1135.98 319.466C1149.05 329.266 1153.3 350.723 1143.74 364.694C1137.55 375.07 1125.46 380.748 1114.07 379.248C1098.83 377.327 1087.46 363.21 1071.61 363.594C1071.18 366.237 1070.95 368.869 1070.81 371.564C1072.27 376.38 1075.7 380.445 1076.39 385.534C1076.36 392.449 1071.15 399.406 1064.51 400.057C1060.12 400.239 1056.64 396.542 1054.26 393.021C1047.63 383.933 1046.24 371.695 1047.52 360.604C1049.62 348.945 1059.56 338.723 1071.04 338.779C1086.55 335.63 1099.15 347.604 1112.9 352.801C1116.7 354.288 1122.5 354.407 1124.18 349.612C1125.47 343.229 1120.35 338.111 1120.23 331.859C1119.42 323.387 1128.6 316.15 1135.98 319.466Z" fill="#2C292A" fill-opacity="0.02"/>
<path d="M1114.78 553.864C1117.64 561.014 1113.35 569.591 1106.25 570.65C1097.6 573.818 1088.78 563.524 1091.87 554.69C1094.93 544.054 1111.29 543.041 1114.78 553.864Z" fill="#2C292A" fill-opacity="0.02"/>
<path d="M1093.01 18.8745C1093.62 24.1296 1091.96 30.5337 1086.73 32.4144C1079.56 36.5728 1068.26 30.8419 1069.3 21.4633C1068.18 12.8743 1077.8 6.71945 1084.78 9.31219C1089.07 9.99537 1092.46 14.4098 1093.01 18.8745Z" fill="#2C292A" fill-opacity="0.02"/>
<path d="M1094.76 720.695C1095.82 731.63 1082.63 736.609 1075.31 730.984C1069.66 727.323 1069.17 718.058 1073.22 712.931C1079.69 704.631 1095.19 708.756 1094.76 720.695Z" fill="#2C292A" fill-opacity="0.02"/>
<path d="M1085.15 642.431C1088.32 651.639 1078.81 659.908 1070.68 658.253C1063.79 656.708 1061.13 647.698 1054.17 646.375C1051.36 645.312 1047.88 646.691 1046.81 649.698C1042.55 659.424 1042.34 670.626 1037.54 680.145C1028.51 699.391 1002.42 706.716 985.767 694.324C977.076 688.379 969.195 677.958 971.096 666.246C973.903 658.738 983.569 656.003 989.791 660.248C993.397 663.65 994.591 669.103 998.223 672.495C1003.54 676.857 1011.89 674.758 1015.56 669C1023.15 657.298 1020.36 640.823 1029.77 630.071C1039.61 618.001 1057.28 618.091 1069.44 626.013C1075.48 630.268 1082.29 635.051 1085.15 642.431Z" fill="#2C292A" fill-opacity="0.02"/>
<path d="M1079.45 157.848C1080.22 161.216 1079.16 164.719 1076.99 167.182C1068.03 178.711 1057.7 188.927 1048.5 200.246C1044.86 204.009 1041.43 209.158 1035.98 209.882C1026.44 211.19 1017.91 197.382 1025.05 189.325C1034.68 177.294 1045.38 166.257 1055.37 154.563C1059.2 150.349 1063.93 145.005 1070.04 146.823C1074.77 148.147 1078.72 152.676 1079.45 157.848Z" fill="#2C292A" fill-opacity="0.02"/>
<path d="M1041.58 495.678C1045.39 505.45 1033.84 515.022 1025.45 511.337C1021.26 509.154 1018.63 504.945 1016.07 501.012C1008.43 489.21 1001.08 477.167 995.051 464.351C992.924 459.034 991.515 451.496 996.494 447.539C1000.44 443.462 1007.43 442.836 1011.92 446.221C1017.94 454.284 1021.71 463.891 1027.13 472.39C1031.58 480.41 1037.53 487.397 1041.58 495.678Z" fill="#2C292A" fill-opacity="0.02"/>
<path d="M1026.09 831.413C1026.89 836.391 1027.33 842.162 1023.57 846.008C1019.36 849.665 1012.86 851.96 1007.95 848.349C1002.8 843.599 1002.64 835.747 1000.63 829.363C998.048 816.786 994.059 804.57 991.597 791.982C988.968 782.229 999.883 772.91 1008.35 776.52C1015.36 780.262 1015.36 789.43 1017.49 796.392C1020.03 808.151 1023.92 819.569 1026.09 831.413Z" fill="#2C292A" fill-opacity="0.02"/>
<path d="M1002.32 296.623C1003 305.942 994.327 308.696 988.264 312.312C975.751 318.794 964.713 327.994 952.446 334.897C947.639 337.85 942.742 333.043 939.886 329.314C936.792 324.088 937.211 316.112 942.271 312.402C954.444 302.42 967.937 294.386 981.556 286.875C986.401 284.326 992.842 282.592 997.463 286.472C1000.66 288.672 1001.63 292.895 1002.32 296.623Z" fill="#2C292A" fill-opacity="0.02"/>
<path d="M998.252 154.83C1001.07 165.318 987.683 174.831 979.878 167.335C971.213 161.362 975.255 143.058 986.474 144.431C992.576 143.408 997.485 148.757 998.252 154.83Z" fill="#2C292A" fill-opacity="0.02"/>
<path d="M985.942 546.631C987.958 553.209 984.239 561.349 977.709 562.753C959.829 567.162 941.95 571.618 924.384 577.321C919.546 578.583 913.787 580.339 909.632 576.262C902.562 572.014 902.096 558.389 910.166 554.986C927.452 548.853 945.281 544.573 963.004 540.091C968.171 538.937 973.494 537.709 978.772 538.568C982.127 539.764 985.4 542.727 985.942 546.631Z" fill="#2C292A" fill-opacity="0.02"/>
<path d="M946.369 47.6823C948.699 65.1724 938.578 84.0674 922.364 89.1529C913.706 91.4931 903.897 91.4148 896.052 86.392C890.66 83.3452 885.975 78.9777 880.268 76.5311C872.803 74.5858 864.099 78.6 861.554 86.5654C858.201 94.9418 864.587 102.321 865.138 110.455C864.33 118.416 855.377 124.832 848.28 121.339C840.646 116.747 838.206 106.89 837.055 98.3193C834.438 80.5281 844.1 61.646 859.553 54.3595C868.796 49.6605 879.847 49.4071 889.552 52.5667C896.851 55.203 902.072 61.6904 909.107 64.853C912.186 65.2514 915.993 65.7269 918.461 63.2061C922.462 58.9902 923.582 52.1672 921.6 46.6196C920.174 42.3365 918.013 38.0777 918.666 33.3643C920.48 27.9704 925.191 22.8109 931.047 23.4816C935.903 22.3119 939.533 26.6601 941.528 30.6996C944.431 35.8537 945.81 41.7555 946.369 47.6823Z" fill="#2C292A" fill-opacity="0.02"/>
<path d="M914.304 258.526C915.478 263.62 914.425 270.138 909.737 272.833C905.144 276.447 898.815 274.925 894.391 271.806C890.815 266.74 890.381 260.233 889.097 254.267C886.001 237.188 881.776 220.366 877.896 203.487C874.545 193.123 886.744 183.371 895.45 188.102C901.102 191.303 901.452 199.153 903.157 204.849C906.985 222.704 911.46 240.452 914.304 258.526Z" fill="#2C292A" fill-opacity="0.02"/>
<path d="M918.714 775.147C919.29 784.292 908.586 792.101 901.041 786.782C885.405 776.957 871.039 764.997 856.913 752.888C852.896 748.874 847.248 745.14 847.41 738.444C847.671 732.409 851.673 726.078 857.612 725.323C862.983 723.717 867.064 728.237 870.798 731.435C883.949 743.753 898.075 754.887 912.916 764.792C916.073 767.167 918.291 771.04 918.714 775.147Z" fill="#2C292A" fill-opacity="0.02"/>
<path d="M903.431 395.582C905.975 403.313 900.051 413.283 891.828 411.776C882.959 412.499 877.637 400.063 882.226 392.633C884.752 387.666 890.315 385.24 895.433 386.56C899.4 387.651 902.722 391.256 903.431 395.582Z" fill="#2C292A" fill-opacity="0.02"/>
<path d="M903.778 653.888C903.659 657.301 903.103 661.158 901.043 663.952C895.646 669.687 885.311 668.803 881.252 661.709C879.48 657.475 879.264 652.226 881.617 648.189C887.231 639.454 903.227 642.554 903.778 653.888Z" fill="#2C292A" fill-opacity="0.02"/>
<path d="M885.925 463.987C885.626 472.817 875.471 479.105 868.149 474.575C861.839 472.381 860.516 463.748 862.802 458.001C865.769 450.952 875.121 449.02 880.852 453.388C884.112 455.707 885.521 459.999 885.925 463.987Z" fill="#2C292A" fill-opacity="0.02"/>
<path d="M853.439 839.196C856.218 846.08 852.439 854.331 845.65 855.819C838.897 858.475 829.577 852.728 830.494 844.473C828.664 835.218 839.701 828.978 846.91 832.342C850.02 833.273 852.9 835.651 853.439 839.196Z" fill="#2C292A" fill-opacity="0.02"/>
<path d="M843.771 604.802C845.284 609.158 843.127 613.699 840.178 616.62C826.552 627.542 806.208 627.428 792.551 616.53C778.411 606.738 773.284 586.402 777.847 569.639C780.448 562.207 785.384 556.089 788.567 548.974C790.312 544.73 788.992 539.702 785.891 536.673C781.023 533.199 774.582 533.959 769.346 536.189C764.951 537.667 759.696 540.781 755.483 537.026C750.631 534.434 748.712 528.095 749.532 522.673C750.634 517.919 754.95 515.236 758.691 513.055C774.63 503.99 796.68 508.679 807.087 524.789C812.022 531.132 813.12 539.675 813.367 547.609C813.009 559.805 803.956 568.714 800.495 579.776C798.825 588.075 804.295 597.42 812.31 598.947C820.493 601.052 827.083 593.174 835.175 594.608C839.387 596.101 843.17 599.979 843.771 604.802Z" fill="#2C292A" fill-opacity="0.02"/>
<path d="M834.478 332.727C838.453 349.597 829.3 367.297 816.388 376.614C807.06 382.61 795.837 370.24 799.886 360.249C802.866 354.744 808.097 350.933 810.903 345.292C812.621 341.968 810.889 337.274 807.432 336.189C796.101 330.725 781.981 330.736 772.928 320.61C761.56 309.629 757.827 290.597 764.585 275.849C768.421 266.319 776.321 259.084 785.418 255.655C791.636 253.004 799.407 257.521 800.924 264.415C801.846 268.316 801.8 273.217 798.852 276.174C794.939 279.662 789.379 281.27 786.558 286.102C783.592 292.249 786.21 300.578 791.777 303.954C800.473 309.54 811.253 308.976 820.076 314.23C827.165 317.687 832.649 324.641 834.478 332.727Z" fill="#2C292A" fill-opacity="0.02"/>
<path d="M816.913 166.379C817.688 171.357 818.508 177.521 814.216 181.058C809.19 186.763 798.252 185.011 795.717 177.261C792.577 170.573 795.944 159.622 803.735 159.164C808.97 157.826 815.157 160.885 816.913 166.379Z" fill="#2C292A" fill-opacity="0.02"/>
<path d="M787.789 783.153C796.809 794.466 798.842 812.648 789.718 824.565C783.732 834.369 772.301 838.856 761.64 838.306C746.736 836.576 734.559 823.937 718.9 826.131C717.956 832.18 720.376 837.503 723.621 842.223C727.645 849.189 723.911 858.58 717.152 861.631C713.942 862.282 709.867 862.793 707.398 859.87C696.563 849.675 692.064 832.138 696.784 817.589C699.63 809.511 706.493 803.323 714.297 801.183C720.303 800.077 726.59 799.586 732.549 801.175C743.533 803.24 752.621 811.214 763.756 812.744C767.031 812.708 770.235 810.319 771.175 806.946C771.75 800.109 764.784 795.88 765.523 789.05C766.213 783.601 769.566 778.25 774.853 776.976C780.067 775.178 784.868 778.956 787.789 783.153Z" fill="#2C292A" fill-opacity="0.02"/>
<path d="M787.347 45.2684C788.829 51.1142 786.711 58.368 781.008 60.6019C772.929 64.9973 763.03 55.9632 764.442 46.9311C765.146 42.1622 767.897 37.2023 772.739 36.4557C778.812 34.1085 786.675 38.1012 787.347 45.2684Z" fill="#2C292A" fill-opacity="0.02"/>
<path d="M788.291 686.141C790.26 692.278 787.622 700.455 781.01 701.501C771.956 706.014 760.711 694.251 765.984 684.875C769.712 674.684 786.119 675.317 788.291 686.141Z" fill="#2C292A" fill-opacity="0.02"/>
<path d="M752.011 371.886C752.202 377.255 749.514 383.465 744.332 385.014C740.277 385.773 735.094 386.007 732.04 382.445C728.337 377.712 726.903 370.468 730.767 365.343C732.502 360.814 737.7 360.322 741.648 360.079C747.286 360.521 751.472 366.162 752.011 371.886Z" fill="#2C292A" fill-opacity="0.02"/>
<path d="M740.492 131.177C741.557 135.647 741.252 140.697 737.761 143.861C726.621 157.531 715.343 171.175 706.256 186.54C703.355 190.967 700.038 196.456 694.441 196.878C685.196 199.13 676.915 186.323 682.482 178.085C693.669 159.531 706.697 142.204 720.72 126.01C726.456 119.481 738.26 122.541 740.492 131.177Z" fill="#2C292A" fill-opacity="0.02"/>
<path d="M720.112 482.465C721.785 495.684 701.709 500.846 697.125 488.846C692.954 480.722 699.458 469.811 708.25 471.276C714.601 470.113 719.655 476.197 720.112 482.465Z" fill="#2C292A" fill-opacity="0.02"/>
<path d="M715.042 621.269C715.233 625.506 713.268 629.347 710.726 632.421C701.91 643.847 692.772 655.001 684.234 666.673C681.877 670.067 678.999 673.198 675.192 674.718C669.248 676.08 663.353 671.713 660.845 666.207C660.468 662.384 660.008 657.946 662.324 654.709C668.994 645.065 676.674 636.278 683.649 626.898C688.612 620.863 692.675 613.658 699.33 609.513C706.562 607.203 714.125 613.699 715.042 621.269Z" fill="#2C292A" fill-opacity="0.02"/>
<path d="M689.814 284.232C691.582 289.055 690.037 294.566 685.833 297.248C675.27 301.222 664.182 303.297 653.325 306.161C645.862 307.774 638.629 310.903 630.911 310.882C622.227 308.974 616.819 296.574 623.032 289.048C626.358 286.833 630.168 285.608 633.972 284.75C644.407 282.064 654.905 279.636 665.296 276.776C670.177 275.532 675.081 273.93 680.158 274.404C684.815 275.296 688.78 279.329 689.814 284.232Z" fill="#2C292A" fill-opacity="0.02"/>
<path d="M640.923 109.897C644.448 118.155 637.816 128.332 629.363 127.056C619.443 127.172 614.612 111.33 622.068 104.797C627.516 98.905 639.305 101.239 640.923 109.897Z" fill="#2C292A" fill-opacity="0.02"/>
<path d="M640.178 561.422C642.588 570.838 631.949 578.141 624.045 575.344C617.492 573.06 615.429 563.807 608.393 562.585C605.54 561.412 602.174 562.984 601.118 565.963C596.216 575.244 595.677 586.458 590.003 595.395C581.213 611.172 560.999 617.411 545.298 610.373C533.626 605.445 523.605 593.303 524.217 579.394C525.442 570.721 536.249 566.966 542.963 571.06C547.417 575.724 548.252 583.791 554.437 586.547C559.947 589.299 566.468 586.644 569.77 581.542C576.451 570.968 575.703 556.73 583.694 546.882C590.795 537.004 603.927 534.362 614.707 537.991C625.541 541.703 636.133 549.738 640.178 561.422Z" fill="#2C292A" fill-opacity="0.02"/>
<path d="M605.207 410.92C608.439 419.446 600.083 427.982 592.193 426.84C586.192 426.401 582.847 420.045 579.879 415.269C572.69 401.791 564.856 388.473 560.086 373.753C557.135 365.868 563.579 356.06 571.662 357.449C576.128 357.266 580.387 360.203 581.953 364.714C587.211 375.689 591.901 386.989 598.096 397.432C600.432 401.938 603.783 405.948 605.207 410.92Z" fill="#2C292A" fill-opacity="0.02"/>
<path d="M601.441 18.1618C602.113 24.2071 599.196 31.0811 593.473 32.9381C588.175 34.893 582.138 32.2099 579.349 27.1929C577.521 21.3591 577.807 13.044 583.509 9.75258C590.252 4.69652 600.53 9.24012 601.441 18.1618Z" fill="#2C292A" fill-opacity="0.02"/>
<path d="M583.755 214.233C584.702 220.175 582.127 226.494 576.51 228.663C572.198 228.762 566.542 229.303 563.57 225.115C559.32 219.053 559.653 208.07 566.947 204.831C573.489 200.687 583.72 205.791 583.755 214.233Z" fill="#2C292A" fill-opacity="0.02"/>
<path d="M570.133 748.551C571.352 758.114 560.548 766.2 552.426 762.182C547.081 760.569 547.249 753.543 545.682 749.04C543.142 734.283 540.144 719.604 537.785 704.818C535.489 696.781 542.242 687.762 550.138 688.591C556.315 687.301 560.82 693.959 561.196 699.814C564.034 716.085 567.356 732.27 570.133 748.551Z" fill="#2C292A" fill-opacity="0.02"/>
<path d="M554.25 76.5806C556.309 95.8847 542.99 116.727 524.403 119.202C518.431 120.233 512.152 119.676 506.591 117.008C498.243 113.846 493.033 105.602 485.87 100.482C477.923 94.6141 464.975 99.6921 463.314 109.995C461.513 115.868 464.101 121.622 464.718 127.41C465.099 134.856 457.678 140.469 451.106 139.961C445.814 140.591 443.127 135.5 441.105 131.249C435.027 114.092 439.415 92.7319 453.627 81.6206C466.123 71.0011 484.81 69.2339 498.42 78.5422C503.913 82.3791 508.15 87.8353 513.429 91.9315C516.771 94.82 522.132 95.1359 525.408 92.0293C529.773 89.0151 530.578 82.7555 529.646 77.7236C529.2 72.8441 527.003 67.3625 529.636 62.7252C533.264 54.0706 547.748 53.0174 551.005 62.4264C553.219 66.7677 553.787 71.7473 554.25 76.5806Z" fill="#2C292A" fill-opacity="0.02"/>
<path d="M547.003 458.199C548.348 465.186 544.02 473.939 536.639 473.878C521.183 476.539 505.763 479.458 490.461 483.046C484.99 484.111 479.475 486.003 473.827 485.459C465.317 483.669 461.613 471.541 466.532 464.302C470.264 460.906 475.244 460.186 479.85 459.046C496.932 455.406 514.04 451.784 531.295 449.228C537.502 447.386 545.709 451.109 547.003 458.199Z" fill="#2C292A" fill-opacity="0.02"/>
<path d="M490.096 273.86C490.169 280.664 492.065 288.493 487.992 294.465C483.133 302.522 469.046 300.188 467.05 290.733C465.943 268.462 464.871 246.153 462.658 223.955C462.077 218.415 465.412 213.157 470.331 211.232C476.429 207.818 485.499 211.7 486.081 219.466C488.829 237.439 488.867 255.728 490.096 273.86Z" fill="#2C292A" fill-opacity="0.02"/>
<path d="M490.243 807.147C492.091 813.34 489.207 821.023 482.849 822.407C477.211 824.079 468.959 824.273 465.633 818.001C461.845 812.394 463.837 803.422 469.793 800.505C476.308 796.085 488.38 798.104 490.243 807.147Z" fill="#2C292A" fill-opacity="0.02"/>
<path d="M465.85 681.281C466.162 689.94 456.612 697.18 449.102 692.954C440.253 687.802 432.786 680.376 424.979 673.652C415.948 665.217 406.197 657.424 398.699 647.34C393.65 639.629 399.885 627.56 408.659 627.776C413.578 626.909 417.298 631.633 420.71 634.659C431.538 646.224 443.018 657.121 455.472 666.659C460.253 670.097 465.174 674.785 465.85 681.281Z" fill="#2C292A" fill-opacity="0.02"/>
<path d="M457.91 557.318C458.799 561.394 458.06 566.145 455.198 569.165C450.665 573.928 442.766 573.862 437.867 569.735C434.051 566.005 432.853 558.998 435.805 554.331C439.995 544.752 456.481 546.396 457.91 557.318Z" fill="#2C292A" fill-opacity="0.02"/>
<path d="M452.145 366.023C452.842 369.862 450.745 373.501 448.922 376.633C442.778 381.997 431.388 380.92 428.24 372.209C428.238 367.731 427.648 362.2 431.095 358.862C437.824 352.215 451.142 355.42 452.145 366.023Z" fill="#2C292A" fill-opacity="0.02"/>
<path d="M408.172 177.039C409.559 181.69 407.802 186.67 405.005 190.242C399.995 194.76 391.273 194.452 387.326 188.47C384.423 183.251 384.214 175.621 388.629 171.273C394.305 164.763 406.845 167.955 408.172 177.039Z" fill="#2C292A" fill-opacity="0.02"/>
<path d="M397.6 50.2406C398.965 55.5356 396.634 61.1083 393.199 64.8414C387.27 68.9623 377.157 66.6151 375.157 58.8055C372.555 51.3318 377.522 40.4691 385.845 41.6534C391.119 40.8207 396.406 44.8339 397.6 50.2406Z" fill="#2C292A" fill-opacity="0.02"/>
<path d="M401.319 505.363C403.238 510.718 400.355 516.35 395.934 518.905C380.781 527.954 359.845 526.227 347.496 512.587C333.457 499.384 330.779 474.136 342.455 458.41C345.91 453.031 351.908 447.815 350.595 440.469C349.768 435.538 345.139 432.66 340.912 431.535C334.293 430.604 328.26 434.643 321.736 434.704C313.399 432.949 308.539 420.859 314.695 413.886C331.642 399.139 360.789 405.261 370.872 426.101C376.165 437.149 376.111 451.586 369.36 461.948C366.229 467.932 360.6 472.859 359.63 479.966C358.103 486.663 361.866 493.456 367.054 496.992C373.531 500.591 380.878 497.608 387.396 495.764C393.831 493.23 399.953 498.937 401.319 505.363Z" fill="#2C292A" fill-opacity="0.02"/>
<path d="M397.121 742.599C397.66 747.128 396.826 752.91 392.488 755.096C386.793 759.298 378.395 757.507 374.654 751.293C372.111 745.658 373.193 737.447 378.838 734.469C385.348 729.589 396.213 734.073 397.121 742.599Z" fill="#2C292A" fill-opacity="0.02"/>
<path d="M373.138 301.666C372.367 305.626 372.021 310.888 368.194 313.071C361.239 318.662 348.912 312.948 349.989 303.082C349.055 296.643 353.749 290.417 359.697 289.726C366.468 288.164 373.243 294.354 373.138 301.666Z" fill="#2C292A" fill-opacity="0.02"/>
<path d="M338.738 130.618C339.265 136.931 334.059 141.727 329.767 145.255C318.392 154.459 308.021 164.951 297.902 175.662C293.694 179.98 290.015 186.594 283.269 185.967C273.607 188.057 266.932 172.892 273.762 165.867C283.194 153.617 294.551 143.228 305.657 132.739C311.345 127.664 316.69 121.837 323.585 118.61C330.64 116.834 337.866 123.278 338.738 130.618Z" fill="#2C292A" fill-opacity="0.02"/>
<path d="M341.425 584.89C343.063 592.932 335.589 600.394 328.164 599.175C319.566 599.299 314.464 587.33 319.366 580.109C324.293 570.736 340.942 573.454 341.425 584.89Z" fill="#2C292A" fill-opacity="0.02"/>
<path d="M329.988 675.24C340.04 684.861 344.429 701.673 338.445 714.944C332.198 729.836 314.678 737.976 300.175 732.509C288.187 728.126 277.804 719.289 264.872 717.773C263.847 720.347 263.056 722.938 262.794 725.772C264.338 730.587 267.508 734.719 268.543 739.731C269.119 748.812 258.891 758.853 250.837 752.507C240.651 743.475 237.503 727.334 240.03 714.017C242.374 700.628 255.365 692.368 267.563 692.896C282.271 692.742 293.923 703.592 307.348 708.203C311.31 709.744 314.622 705.883 317.955 704.376C316.166 698.091 313.671 692.032 312.055 685.7C312.233 676.889 322.907 669.567 329.988 675.24Z" fill="#2C292A" fill-opacity="0.02"/>
<path d="M320.946 814.932C321.516 819.111 321.766 824.24 318.977 827.674C314.559 831.737 307.35 833.652 302.389 829.388C294.862 825.135 295.924 811.324 303.875 808.226C309.96 805.198 318.556 807.999 320.946 814.932Z" fill="#2C292A" fill-opacity="0.02"/>
<path d="M285.295 373.88C286.746 377.979 284.316 382.026 281.755 384.851C276.315 390.687 265.369 388.908 262.375 381.079C260.062 376.223 261.629 370.178 265.064 366.482C271.643 360.434 284.35 364.021 285.295 373.88Z" fill="#2C292A" fill-opacity="0.02"/>
<path d="M271.705 512.807C273.03 519.583 267.132 524.338 263.462 528.873C252.752 540.131 243.551 553.087 231.872 563.24C222.952 568.36 212.217 557.585 215.282 547.74C223.063 534.372 234.951 524.53 244.42 512.592C248.574 507.971 252.783 501.758 259.162 500.815C265.309 501.097 270.924 506.202 271.705 512.807Z" fill="#2C292A" fill-opacity="0.02"/>
<path d="M264.531 269.232C265.94 273.543 264.785 278.077 262.438 281.692C258.725 284.269 254.137 284.388 249.838 284.992C235.623 286.209 221.398 287.343 207.164 288.311C201.644 288.604 196.337 284.333 194.882 278.698C192.952 273.149 194.833 265.345 200.722 263.716C217.027 261.205 233.568 261.165 249.949 259.453C256.314 257.903 262.888 262.771 264.531 269.232Z" fill="#2C292A" fill-opacity="0.02"/>
<path d="M243.229 90.9985C243.707 94.4246 243.47 98.2335 241.558 101.155C238.095 106.736 230.101 107.802 224.965 104.257C219.112 99.7791 218.631 89.6126 223.704 84.3215C229.482 77.5168 242.899 81.2998 243.229 90.9985Z" fill="#2C292A" fill-opacity="0.02"/>
<path d="M196.892 445.283C196.81 451.068 194.005 456.773 188.523 458.582C183.634 460.966 178.975 456.626 174.869 454.378C159.558 444.183 144.528 433.516 129.72 422.506C124.964 418.976 121.271 412.293 123.537 406.123C125.701 399.236 134.854 395.108 140.629 399.605C155.538 409.206 169.304 420.72 184.281 430.238C189.455 434.105 196.93 437.338 196.892 445.283Z" fill="#2C292A" fill-opacity="0.02"/>
<path d="M191.009 659.096C191.708 668.534 180.406 675.061 173.179 669.527C165.776 665.632 164.842 652.885 172.142 648.432C179.199 641.608 191.32 649.649 191.009 659.096Z" fill="#2C292A" fill-opacity="0.02"/>
<path d="M170.951 130.206C171.404 133.918 172.35 138.591 169.514 141.574C164.651 149.264 151.255 148.12 148.225 139.04C145.039 131.985 150.091 123.089 157.188 122.242C162.58 121.096 169.784 123.953 170.951 130.206Z" fill="#2C292A" fill-opacity="0.02"/>
<path d="M166.475 539.443C169.29 547.522 161.9 555.866 154.369 555.374C147.989 554.064 141.43 547.78 142.915 540.283C143.69 533.601 150.192 528.676 156.45 529.895C160.945 531.018 165.406 534.431 166.475 539.443Z" fill="#2C292A" fill-opacity="0.02"/>
<path d="M140.276 291.367C143.57 299.966 135.395 308.482 127.486 307.239C119.811 307.107 114.549 297.815 117.565 290.435C120.682 279.55 138.032 280.175 140.276 291.367Z" fill="#2C292A" fill-opacity="0.02"/>
<path d="M136.107 216.958C139.203 227.702 124.543 236.821 117.092 229.34C112.841 225.153 109.158 218.736 102.834 217.94C98.9272 217.833 96.5406 221.889 95.4111 225.384C92.0888 235.47 90.0086 246.329 83.7277 255.014C73.0152 269.197 52.4694 273.011 37.568 264.301C29.7883 259.876 23.6583 252.172 21.0439 243.19C20.3945 239.885 19.3535 236.242 20.9261 233.039C23.4055 225.543 33.0751 223.305 39.02 227.414C42.7701 231.559 44.5973 237.274 48.4934 241.307C53.8284 245.863 62.6151 243.457 65.8917 237.279C72.5858 227.34 71.6025 213.867 78.7047 204.164C85.8091 192.621 100.808 190.056 112.364 194.452C122.233 198.631 132.284 205.999 136.107 216.958Z" fill="#2C292A" fill-opacity="0.02"/>
<path d="M127.261 810.994C130.049 820.159 119.62 829.805 111.477 825.309C104.006 822.674 101.133 811.736 106.224 805.488C111.833 797.02 125.7 800.836 127.261 810.994Z" fill="#2C292A" fill-opacity="0.02"/>
<path d="M105.61 710.97C105.981 715.151 105.557 719.246 104.345 723.246C99.8717 729.884 89.5221 731.217 84.3967 724.738C81.9008 722.79 82.6208 718.923 82.0113 716.243C80.8412 698.928 80.3358 681.534 77.6375 664.379C77.0647 657.754 74.6107 649.314 80.2728 644.322C86.0681 637.655 98.2263 641.917 99.7324 650.659C103.231 670.548 105.133 690.744 105.61 710.97Z" fill="#2C292A" fill-opacity="0.02"/>
<path d="M70.4382 523.661C71.9563 529.636 67.7959 534.469 65.2248 539.197C58.2371 550.177 51.6753 561.466 44.792 572.528C42.8675 574.962 41.5388 578.393 38.5683 579.732C31.2798 584.59 20.4633 578.653 19.7585 569.629C20.1907 564.365 23.8726 560.198 26.1349 555.757C33.7787 543.632 40.9706 531.188 48.6928 519.145C54.6177 511.346 67.5629 514.461 70.4382 523.661Z" fill="#2C292A" fill-opacity="0.02"/>
<path d="M65.7794 403.226C67.9666 411.769 60.1771 419.767 52.3246 419.011C48.1696 419.191 44.3946 416.196 43.3834 411.955C41.0906 403.174 40.0483 394.079 38.1866 385.183C36.499 375.376 33.7319 365.651 33.667 355.629C34.0349 346.734 44.8137 341.83 51.8419 345.332C57.2011 349.749 57.4635 357.508 58.7778 363.944C60.8471 377.086 63.9949 390.026 65.7794 403.226Z" fill="#2C292A" fill-opacity="0.02"/>
<path d="M38.0547 107.014C46.8992 111.661 44.0084 128.007 34.5235 129.582C17.3793 132.992 0.0996343 135.704 -16.9626 139.629L-17.1779 113.358C-3.91022 110.41 9.46585 108.042 22.8062 105.526C27.8905 104.796 33.5156 103.62 38.0547 107.014Z" fill="#2C292A" fill-opacity="0.02"/>
<path d="M25.6842 741.88C29.4434 751.358 20.1507 761.603 11.2669 758.464C2.60468 755.995 -0.589743 742.659 6.38602 736.535C12.2881 730.161 22.7682 734.05 25.6842 741.88Z" fill="#2C292A" fill-opacity="0.02"/>
</g>
<defs>
<filter id="filter0_d_17_2032" x="-19.1779" y="1.6925" width="1464.23" height="863.442" filterUnits="userSpaceOnUse" color-interpolation-filters="sRGB">
<feFlood flood-opacity="0" result="BackgroundImageFix"/>
<feColorMatrix in="SourceAlpha" type="matrix" values="0 0 0 0 0 0 0 0 0 0 0 0 0 0 0 0 0 0 127 0" result="hardAlpha"/>
<feOffset dy="1"/>
<feGaussianBlur stdDeviation="1"/>
<feComposite in2="hardAlpha" operator="out"/>
<feColorMatrix type="matrix" values="0 0 0 0 0 0 0 0 0 0 0 0 0 0 0 0 0 0 0.15 0"/>
<feBlend mode="normal" in2="BackgroundImageFix" result="effect1_dropShadow_17_2032"/>
<feBlend mode="normal" in="SourceGraphic" in2="effect1_dropShadow_17_2032" result="shape"/>
</filter>
</defs>
</svg>
