<svg width="222" height="219" viewBox="0 0 222 219" fill="none" xmlns="http://www.w3.org/2000/svg">
<path d="M89.4686 9.45316C98.7722 1.67542 111.668 -1.01389 123.665 0.331908C130.054 1.11105 136.429 2.82471 141.919 6.17664C143.425 7.18656 144.906 8.30158 146.039 9.71592C147.199 11.1965 146.931 13.2049 147.38 14.914C148.748 17.0755 150.86 18.7184 152.044 21.0078C154.86 26.0688 154.539 32.0849 153.781 37.6143C153.035 42.9473 153.134 48.399 154.142 53.6953C155.135 58.6695 155.326 63.8539 154.16 68.8144C152.91 74.8716 150.396 80.5976 147.67 86.1475C148.407 86.7622 149.212 87.322 149.822 88.0645C150.488 88.8711 150.422 89.961 150.398 90.9389C150.189 93.6534 150.01 96.3701 149.984 99.0937C156.884 101.052 163.939 103.001 170.025 106.844C175.357 110.232 178.975 115.49 181.991 120.821C187.723 130.929 190.904 142.107 194.845 152.926C195.798 155.727 196.756 158.558 197.145 161.496C197.17 164.128 198.522 166.493 199.214 168.986C201.243 175.87 203.538 182.784 203.743 190.007C203.882 194.565 204.548 199.313 202.959 203.718C201.693 207.786 199.419 211.592 196.236 214.531C191.794 218.68 184.842 220.158 179.055 218.038C172.546 215.607 166.381 212.081 161.515 207.185C157.261 202.727 153.824 197.593 150.902 192.235C148.07 193.153 145.33 194.364 142.38 194.91C137.26 195.968 132.001 195.338 126.843 194.945C108.89 193.432 90.9847 191.378 73.1709 188.75C72.2269 188.538 70.9321 188.49 70.4519 187.498C69.7409 185.947 69.7339 184.187 69.4208 182.542C68.7357 178.489 68.3826 174.381 67.408 170.377C63.9003 170.165 60.3809 169.989 56.8685 170.206C51.1103 170.69 45.4344 171.876 39.8716 173.375C36.4958 174.275 33.2847 175.667 30.2855 177.413C30.5257 180.938 31.5427 184.345 32.5432 187.724C34.4736 194.508 36.5711 201.258 39.1159 207.852C39.9469 210.169 41.0251 212.449 41.2747 214.914C41.3476 216.1 40.0788 217.012 38.8946 216.754C37.6069 216.87 37.1102 215.504 36.6511 214.599C32.5691 204.655 29.3321 194.401 26.6202 184.03C25.283 183.819 23.9529 183.358 22.9854 182.391C22.4839 181.61 22.5028 180.639 22.3497 179.761C21.0926 168.618 20.4758 157.358 21.5564 146.176C22.3403 137.539 24.0235 128.74 28.3952 121.077C31.0695 116.491 34.3182 112.122 38.6474 108.871C49.3023 101.269 62.0641 97.428 74.1761 92.632C76.7798 91.5787 79.3741 90.5002 82.0013 89.4995C83.628 88.8665 84.7109 87.3882 85.3253 85.8482C86.6319 81.9616 86.9473 77.8534 87.171 73.7955C85.3442 73.3705 83.4185 72.8998 81.9848 71.6477C79.0398 69.4176 77.0623 66.2234 75.6875 62.8989C74.2208 59.3824 73.6205 55.5598 73.7665 51.776C73.9784 48.7531 75.7487 45.8993 78.383 44.2793C78.31 37.7354 77.6532 31.0362 79.5059 24.6476C81.2221 18.7823 84.7933 13.4997 89.4686 9.45316ZM137.462 18.7549C131.031 20.7153 124.303 22.0406 117.53 21.8144C113.556 21.6773 109.587 21.3003 105.684 20.5577C103.431 20.1715 101.157 19.5249 98.8499 19.9293C97.7928 20.1327 96.9454 21.0078 96.8229 22.0634C96.1402 25.9226 96.9665 29.8389 96.7994 33.7255C96.8371 38.1924 95.1468 42.4263 93.553 46.5437C92.8397 48.4333 92.5925 50.4508 91.9687 52.3587C91.0553 53.9421 87.8254 54.6024 87.0627 52.5917C86.3305 51.1683 85.8173 49.45 84.3366 48.5772C83.0983 47.5147 81.3139 47.469 79.786 47.8095C78.5854 48.3442 78.0581 49.6877 77.7215 50.8507C77.1706 54.3443 78.0981 57.8447 79.1245 61.1669C80.1956 64.0162 81.7564 66.8563 84.3601 68.6522C86.0598 69.8335 88.2821 69.6461 90.2266 70.0939C90.9235 70.311 91.1683 71.0605 91.3307 71.6797C92.5572 77.5975 95.514 83.1475 99.6173 87.667C103.721 91.9511 109.093 94.8552 114.627 97.0373C116.817 94.0395 119.712 91.4599 123.187 89.9427C126 88.5581 129.397 88.1377 132.399 89.1933C134.541 89.9679 136.29 91.4736 137.757 93.1393C140.337 89.8353 142.489 86.2435 144.652 82.6768C148.466 74.8397 151.75 66.2759 150.54 57.4517C149.85 52.9847 148.967 48.5178 149.045 43.9777C147.498 43.2854 145.97 42.4537 144.247 42.2641C141.177 41.8574 138.152 42.6434 135.24 43.4842C134.6 42.7827 133.821 42.2389 132.935 41.8688C133.192 40.9891 133.458 40.0363 134.308 39.5039C138.828 36.6433 144.965 37.2008 149.327 40.1117C149.492 35.1535 149.25 29.9897 147.051 25.4176C145.685 22.7466 143.958 20.0345 141.297 18.4259C140.09 17.5325 138.687 18.4487 137.462 18.7549ZM90.8081 82.1261C90.3137 86.7622 88.1668 91.5833 83.6398 93.7333C84.2966 96.2056 85.1087 98.6641 86.5071 100.848C88.5481 104.013 90.8387 107.143 94.0239 109.323C98.3366 112.472 103.457 114.631 108.829 115.262C110.592 115.312 112.36 115.188 114.121 115.07C114.543 112.776 115.524 110.568 117.226 108.898C117.142 108.354 117.017 107.76 116.956 107.232C115.818 106.901 114.729 106.396 113.813 105.647C112.744 104.331 112.553 102.583 112.65 100.965C108.363 99.489 104.359 97.2589 100.808 94.5056C96.5357 91.1926 93.3977 86.7507 90.8081 82.1261ZM145.354 89.7279C143.976 91.7638 142.583 93.7882 141.114 95.7623C142.884 97.5879 144.784 99.2856 146.731 100.931C146.571 97.2818 146.486 93.6282 146.712 89.9816C146.257 89.897 145.805 89.8125 145.354 89.7279ZM125.866 92.5429C124.366 92.8445 123.119 93.779 121.916 94.6382C119.218 96.7928 116.478 99.3656 115.92 102.877C116.494 103.264 117.076 103.659 117.65 104.056C119.75 101.575 122.481 99.6192 125.515 98.3511C126.158 98.0906 126.869 98.1317 127.552 98.2483C129.324 99.2171 130.617 100.928 132.608 101.543C134.451 102.066 136.372 102.359 138.171 103.037C139.315 103.421 140.021 104.445 140.419 105.519C138.757 106.115 136.945 105.811 135.29 105.354C131.353 104.337 127.253 103.177 123.149 103.833C121.388 104.449 120.887 106.405 120.237 107.918C124.479 107.991 128.689 108.578 132.848 109.339C133.625 109.602 134.845 109.76 134.925 110.742C134.953 111.667 133.967 112.325 133.077 112.268C129.145 111.932 125.263 110.625 121.28 111.137C119.154 111.469 118.001 113.42 117.37 115.23C120.331 115.3 123.307 115.305 126.25 115.7C127.561 115.84 128.957 116.082 130.005 116.925C130.089 117.572 130.153 118.335 129.461 118.645C127.342 119.722 125.049 118.533 122.871 118.351C120.929 118.214 118.815 117.837 116.963 118.618C114.015 120.814 114.265 124.975 115.868 127.872C117.09 130.166 119.543 131.441 121.927 132.339C122.182 129.279 119.67 127.013 118.827 124.223C120.602 124.559 122.37 124.945 124.162 125.203C125.141 129.526 125.292 134.018 126.834 138.218C127.778 141.017 129.477 143.635 131.935 145.408C133.314 146.564 135.188 147.348 135.892 149.103C142.472 163.502 148.444 178.196 156.088 192.116C159.285 197.545 162.986 202.821 167.92 206.908C171.92 209.988 176.475 212.348 181.256 214.062C184.357 215.161 187.89 214.579 190.73 213.061C192.961 211.974 194.522 210.006 195.953 208.092C198.461 204.477 199.857 200.092 199.487 195.717C199.656 191.366 198.465 186.989 195.923 183.39C192.655 178.011 187.504 174.141 182.535 170.332C177.151 166.235 172.205 161.626 167.598 156.723C161.533 150.931 156.738 144.044 152.414 136.972C150.963 134.745 150.351 132.156 150.107 129.565C149.565 124.497 149.002 119.429 148.673 114.345C148.499 112.163 148.393 109.951 147.823 107.826C147.011 105.258 144.854 103.385 142.724 101.808C139.306 99.2993 136.38 96.2376 133.199 93.466C131.196 91.6929 128.3 92.0768 125.866 92.5429ZM176.035 159.712C180.277 163.747 185.268 166.904 189.901 170.483C192.283 172.278 194.322 174.445 196.563 176.396C195.466 171.463 194.167 166.55 192.22 161.862C191.961 161.316 191.718 160.616 191.029 160.484C186.172 159.074 181.019 159.595 176.035 159.712Z" fill="#010101"/>
<path d="M111.983 37.9504C114.611 37.7973 117.483 37.4454 119.889 38.7501C121.028 39.399 122.396 40.1279 122.775 41.4622C123.039 42.1706 122.382 42.7669 122.069 43.3473C118.544 42.9154 114.983 42.7075 111.435 42.9063C109.545 43.1919 107.77 43.9413 106.091 44.805C105.394 45.1409 104.679 45.5796 103.852 45.4059C103.226 44.9124 102.675 44.3366 102.077 43.8134C104.172 40.434 107.981 38.316 111.983 37.9504Z" fill="#010101"/>
<path d="M130.577 45.431C131.518 45.1751 132.726 45.5133 133.321 46.2216C133.425 49.0297 133.458 52 134.946 54.5157C136.203 57.4038 138.616 60.0771 138.216 63.4153C138.277 65.6202 137.072 68.0102 134.875 68.8305C131.791 69.7947 128.46 69.2532 125.459 68.273C124.435 67.9508 124.371 66.5959 125.11 65.9584C127.895 65.1176 130.941 66.6758 133.632 65.3506C135 64.7474 135.325 62.9698 134.802 61.7062C133.369 57.4404 130.892 53.5515 129.604 49.2353C129.126 47.9649 129.317 46.2193 130.577 45.431Z" fill="#010101"/>
<path d="M140.468 47.9969C142.107 47.4645 143.988 48.4059 144.612 49.9344C145.542 51.904 143.774 54.9658 141.337 54.4768C139.207 54.1341 137.752 51.7943 138.326 49.7859C138.745 48.9542 139.517 48.2094 140.468 47.9969Z" fill="#010101"/>
<path d="M112.212 48.4357C113.895 47.9901 116.176 48.3831 116.84 50.1585C117.902 52.3634 115.637 55.071 113.194 54.6369C110.079 54.5272 109.389 49.4593 112.212 48.4357Z" fill="#010101"/>
<path d="M82.0156 56.373C82.1663 55.6464 82.7949 54.9541 83.5953 54.9266C85.3373 56.1879 86.6015 58.2763 86.4367 60.4309C86.2555 61.5528 84.7865 61.5871 83.9037 61.9892C82.8843 60.2824 81.825 58.4248 82.0156 56.373Z" fill="#010101"/>
<path d="M107.638 72.7948C108.429 71.2731 110.253 69.8016 112.099 70.2837C113.031 70.583 112.659 71.7141 112.69 72.4201C115.345 73.6014 118.3 73.8116 121.169 74.0401C127.144 74.2731 133.159 74.3782 139.098 73.5922C140.158 73.382 141.391 74.3714 140.977 75.4453C139.503 77.8147 137.479 79.8048 135.504 81.7835C133.978 83.3327 132.175 84.747 130.042 85.3982C125.852 85.7341 121.546 84.8453 117.982 82.6427C114.933 80.8879 112.744 78.1323 110.529 75.5161C109.547 75.8634 108.537 76.1353 107.522 76.3615C107.381 75.1894 106.915 73.8504 107.638 72.7948ZM116.277 76.4895C117.716 77.8695 119.265 79.1696 121.052 80.111C124.048 81.4888 127.631 82.0029 130.802 80.881C132.57 80.0082 133.889 78.5184 135.249 77.1612C128.914 77.2138 122.582 77.1315 116.277 76.4895Z" fill="#010101"/>
</svg>
