<svg width="120" height="150" viewBox="0 0 120 150" fill="none" xmlns="http://www.w3.org/2000/svg">
<path d="M89.5154 54.5869C89.3672 54.2466 89.2468 53.8172 89.1542 53.2986C89.0617 52.7801 89.0061 52.2454 88.9876 51.6944C88.9876 51.1273 89.0061 50.5845 89.0431 50.0659C89.0987 49.5474 89.1913 49.118 89.3209 48.7777C89.6172 48.6805 89.9042 48.5184 90.182 48.2916C90.4598 48.0485 90.6913 47.6677 90.8765 47.1492C91.0616 46.6145 91.1542 45.8691 91.1542 44.913C91.1542 43.876 91.0431 43.0982 90.8209 42.5796C90.6172 42.0449 90.3672 41.6884 90.0709 41.5102C89.7931 41.3157 89.5431 41.2185 89.3209 41.2185C89.1542 40.9268 89.0339 40.5298 88.9598 40.0275C88.8857 39.5252 88.8487 38.9904 88.8487 38.4233C88.8672 37.8399 88.9228 37.2809 89.0154 36.7462C89.108 36.1952 89.2468 35.7253 89.432 35.3364C89.9505 35.3688 90.6265 35.4174 91.4598 35.4822C92.2931 35.5309 93.219 35.5795 94.2375 35.6281C95.2561 35.6605 96.2931 35.6767 97.3486 35.6767C98.719 35.6767 99.8764 35.6362 100.821 35.5552C101.784 35.4741 102.645 35.4012 103.404 35.3364C103.515 35.7253 103.599 36.2114 103.654 36.7948C103.728 37.3619 103.765 37.9615 103.765 38.5934C103.784 39.2254 103.775 39.8168 103.737 40.3678C103.7 40.9025 103.636 41.3157 103.543 41.6074H102.626L102.599 44.1109C103.432 43.3493 103.969 42.5229 104.21 41.6317C104.45 40.7405 104.571 39.7763 104.571 38.7393C104.571 38.2531 104.543 37.7265 104.487 37.1594C104.45 36.5922 104.395 35.9846 104.321 35.3364C104.839 35.3688 105.404 35.4174 106.015 35.4822C106.645 35.5471 107.46 35.6038 108.46 35.6524C109.478 35.701 110.802 35.7253 112.432 35.7253C113.432 35.7253 114.256 35.701 114.904 35.6524C115.571 35.6038 116.173 35.5552 116.71 35.5066C117.247 35.4417 117.811 35.385 118.404 35.3364C118.552 35.6767 118.673 36.1061 118.765 36.6246C118.858 37.1432 118.904 37.686 118.904 38.2531C118.923 38.8041 118.904 39.3388 118.848 39.8573C118.811 40.3759 118.728 40.8053 118.598 41.1456C117.802 41.1942 117.117 41.3319 116.543 41.5588C115.987 41.7856 115.487 42.0692 115.043 42.4095C115.247 44.2243 115.673 45.626 116.321 46.6145C116.987 47.5867 117.886 48.3078 119.015 48.7777C119.145 49.118 119.228 49.5474 119.265 50.0659C119.321 50.5845 119.339 51.1273 119.321 51.6944C119.321 52.2454 119.274 52.7801 119.182 53.2986C119.089 53.8172 118.969 54.2466 118.821 54.5869C118.061 54.522 117.219 54.441 116.293 54.3438C115.367 54.2466 114.219 54.198 112.849 54.198C111.126 54.198 109.737 54.2223 108.682 54.2709C107.645 54.3195 106.802 54.3681 106.154 54.4167C105.525 54.4815 104.95 54.5383 104.432 54.5869C104.487 54.0035 104.534 53.4688 104.571 52.9827C104.608 52.4803 104.626 52.0185 104.626 51.5972C104.626 50.9328 104.589 50.309 104.515 49.7256C104.46 49.1261 104.284 48.5589 103.987 48.0242C103.71 47.4895 103.247 46.9871 102.599 46.5172V48.7777H103.626C103.7 49.0694 103.747 49.4664 103.765 49.9687C103.802 50.471 103.812 51.0139 103.793 51.5972C103.775 52.1806 103.737 52.7396 103.682 53.2743C103.626 53.8091 103.543 54.2466 103.432 54.5869C102.913 54.5383 102.395 54.4815 101.876 54.4167C101.376 54.3681 100.765 54.3195 100.043 54.2709C99.3394 54.2223 98.432 54.198 97.3209 54.198C95.469 54.198 93.9042 54.2385 92.6264 54.3195C91.3672 54.4167 90.3302 54.5058 89.5154 54.5869Z" fill="black"/>
<path d="M70.997 54.9758C68.7008 54.9758 66.8211 54.7327 65.3582 54.2466C63.9138 53.7767 62.849 53.1123 62.1638 52.2535C61.4786 51.3947 61.136 50.4143 61.136 49.3124C61.136 48.9073 61.2008 48.4779 61.3304 48.0242C61.4601 47.5705 61.6823 47.1492 61.9971 46.7603C62.3304 46.3714 62.7841 46.0554 63.3582 45.8123C63.9323 45.5531 64.6638 45.4235 65.5526 45.4235C66.5897 45.4235 67.5804 45.5855 68.5248 45.9096C69.4693 46.2337 70.2285 46.7279 70.8026 47.3922L71.3582 46.9061C70.7285 46.2256 69.9137 45.6989 68.9137 45.3262C67.9137 44.9373 66.7286 44.7429 65.3582 44.7429C64.4878 44.7429 63.8026 44.6295 63.3027 44.4026C62.8027 44.1595 62.423 43.8679 62.1638 43.5276C61.9045 43.1711 61.6823 42.8146 61.4971 42.4581C61.3304 42.1016 61.136 41.8099 60.9138 41.5831C60.7101 41.34 60.4045 41.2185 59.9971 41.2185C59.8305 40.9268 59.7101 40.5298 59.636 40.0275C59.5619 39.5252 59.5249 38.9904 59.5249 38.4233C59.5434 37.8399 59.599 37.2809 59.6916 36.7462C59.7842 36.1952 59.923 35.7253 60.1082 35.3364C60.6267 35.3688 61.2934 35.4174 62.1082 35.4822C62.9415 35.5309 63.8489 35.5795 64.8304 35.6281C65.8119 35.6605 66.7841 35.6767 67.7471 35.6767C69.0063 35.6767 70.1545 35.6362 71.1915 35.5552C72.2285 35.4741 73.1267 35.4012 73.8859 35.3364C73.6452 36.1952 73.4878 37.0702 73.4137 37.9615C73.3581 38.8527 73.3952 39.6953 73.5248 40.4893C73.6544 41.2833 73.8767 41.9801 74.1915 42.5796C74.5063 43.163 74.9044 43.6005 75.3859 43.8922V41.656H74.5248C74.3026 40.3273 74.2285 39.1363 74.3026 38.083C74.3767 37.0135 74.5341 36.098 74.7748 35.3364C75.2748 35.385 75.8118 35.4417 76.3859 35.5066C76.96 35.5552 77.6544 35.5957 78.4692 35.6281C79.3025 35.6605 80.3396 35.6767 81.5803 35.6767C82.1729 35.6767 82.8581 35.6605 83.6358 35.6281C84.4136 35.5795 85.1821 35.5309 85.9414 35.4822C86.7006 35.4174 87.3303 35.3688 87.8303 35.3364C88.0154 35.7253 88.1543 36.1952 88.2469 36.7462C88.3395 37.2809 88.3858 37.8399 88.3858 38.4233C88.4043 38.9904 88.3766 39.5252 88.3025 40.0275C88.2284 40.5298 88.108 40.9268 87.9414 41.2185C87.4969 41.2671 87.1543 41.4129 86.9136 41.656C86.6729 41.8829 86.4599 42.2231 86.2747 42.6769C86.1081 43.1144 85.8766 43.6896 85.5803 44.4026C84.9321 46.0392 84.3025 47.4571 83.6914 48.6562C83.0803 49.8391 82.4136 50.8437 81.6914 51.6701C80.9692 52.4803 80.1266 53.1285 79.1637 53.6146C78.2192 54.1007 77.0803 54.4491 75.747 54.6598C74.4322 54.8704 72.8489 54.9758 70.997 54.9758Z" fill="black"/>
<path d="M32.0355 54.5869C31.8688 54.2466 31.7392 53.8172 31.6466 53.2987C31.554 52.7801 31.4985 52.2454 31.48 51.6945C31.4614 51.1273 31.48 50.5845 31.5355 50.0659C31.6096 49.5474 31.7114 49.118 31.8411 48.7777C32.1188 48.6805 32.3874 48.5185 32.6466 48.2916C32.9244 48.0485 33.1559 47.6677 33.3411 47.1492C33.5262 46.6145 33.6188 45.8691 33.6188 44.913C33.6188 43.876 33.5077 43.0982 33.2855 42.5797C33.0818 42.0449 32.8318 41.6884 32.5355 41.5102C32.2577 41.3157 32.0077 41.2185 31.7855 41.2185C31.6188 40.9268 31.4985 40.5298 31.4244 40.0275C31.3503 39.5252 31.3133 38.9904 31.3133 38.4233C31.3318 37.84 31.3874 37.2809 31.48 36.7462C31.5726 36.1952 31.7114 35.7253 31.8966 35.3364C33.267 35.385 34.4985 35.3931 35.591 35.3607C36.7021 35.3283 37.804 35.2797 38.8966 35.2149C40.0077 35.1501 41.2114 35.0934 42.5077 35.0448C43.8225 34.9799 45.3688 34.9475 47.1465 34.9475C49.7576 34.9475 51.9613 35.1501 53.7576 35.5552C55.5539 35.9441 56.915 36.6652 57.8409 37.7184C58.7853 38.7555 59.2575 40.2382 59.2575 42.1665C59.2575 43.8355 58.8964 45.1723 58.1742 46.177C57.4705 47.1816 56.452 47.9108 55.1187 48.3645C53.7854 48.802 52.1835 49.0208 50.3132 49.0208C49.128 49.0208 48.1835 48.9398 47.4798 48.7777C46.7762 48.5995 46.128 48.2106 45.5354 47.611L44.9521 48.0728C45.4336 48.5752 46.0169 48.9641 46.7021 49.2395C47.3873 49.4988 48.2391 49.6446 49.2576 49.677C49.4243 50.1308 49.5261 50.6493 49.5632 51.2326C49.6187 51.816 49.6002 52.3993 49.5076 52.9827C49.4335 53.566 49.2947 54.0927 49.091 54.5626C48.1836 54.4978 46.9243 54.4167 45.3132 54.3195C43.7206 54.2223 41.8966 54.1818 39.841 54.198C38.804 54.198 37.7855 54.2223 36.7855 54.2709C35.7855 54.3195 34.8688 54.3681 34.0355 54.4167C33.2207 54.4816 32.554 54.5383 32.0355 54.5869ZM44.9521 43.8679H46.6465V42.2394H44.9521V43.8679Z" fill="black"/>
<path d="M0.564811 57.2119C0.416664 56.8554 0.296294 56.3855 0.203702 55.8022C0.129629 55.2188 0.0740736 54.5869 0.0370368 53.9063C-3.18399e-09 53.2095 -0.0092592 52.529 0.0092592 51.8646C0.046296 51.184 0.101851 50.5764 0.175925 50.0416C0.268517 49.5069 0.379627 49.1018 0.509256 48.8263C1.63888 48.7129 2.52776 48.4293 3.1759 47.9756C3.82405 47.5219 4.28701 46.9547 4.56478 46.2742C4.86108 45.5936 5.00923 44.8887 5.00923 44.1595C5.00923 43.479 4.8796 42.9361 4.62034 42.531C4.3796 42.1097 4.08331 41.8018 3.73146 41.6074C3.39813 41.4129 3.10183 41.2914 2.84257 41.2428C2.67591 40.9349 2.55554 40.5298 2.48146 40.0275C2.40739 39.5252 2.37035 38.9904 2.37035 38.4233C2.38887 37.8399 2.44443 37.2809 2.53702 36.7462C2.62961 36.1952 2.7685 35.7253 2.95368 35.3364C4.1759 35.3364 5.87959 35.4012 8.06476 35.5309C10.2499 35.6443 12.9351 35.701 16.1203 35.701C19.4906 35.701 22.2776 35.6443 24.4813 35.5309C26.685 35.4012 28.3331 35.3364 29.4257 35.3364C29.6109 35.7253 29.7498 36.1952 29.8424 36.7462C29.935 37.2809 29.9813 37.8399 29.9813 38.4233C29.9998 38.9904 29.972 39.5252 29.8979 40.0275C29.8239 40.5298 29.7035 40.9268 29.5368 41.2185C29.3146 41.2185 29.0554 41.3157 28.7591 41.5102C28.4813 41.6884 28.2313 42.0449 28.0091 42.5796C27.8054 43.0982 27.7035 43.876 27.7035 44.913C27.7035 45.8691 27.8239 46.6307 28.0646 47.1978C28.3239 47.7649 28.6572 48.1701 29.0646 48.4131C29.472 48.6562 29.9072 48.7939 30.3702 48.8263C30.4998 49.1018 30.6016 49.5069 30.6757 50.0416C30.7683 50.5764 30.8239 51.184 30.8424 51.8646C30.8794 52.529 30.8794 53.2095 30.8424 53.9063C30.8053 54.5869 30.7405 55.2188 30.6479 55.8022C30.5739 56.3855 30.4628 56.8554 30.3146 57.2119C29.7961 57.3092 29.1572 57.374 28.398 57.4064C27.6387 57.455 26.8146 57.4793 25.9258 57.4793C25.0554 57.4793 24.1943 57.455 23.3424 57.4064C22.4906 57.374 21.7036 57.3092 20.9813 57.2119C20.8517 56.7258 20.7499 56.2235 20.6758 55.705C20.6202 55.1864 20.5739 54.7246 20.5369 54.3195C19.611 54.2871 18.6758 54.2628 17.7314 54.2466C16.7869 54.2304 15.8517 54.2223 14.9258 54.2223C13.6851 54.2223 12.1573 54.2466 10.3425 54.2952C10.324 54.7003 10.2777 55.1621 10.2036 55.6806C10.1296 56.2154 10.0277 56.7258 9.89808 57.2119C9.17586 57.3092 8.37031 57.374 7.48143 57.4064C6.61107 57.455 5.73144 57.4793 4.84256 57.4793C3.95368 57.4793 3.12961 57.455 2.37035 57.4064C1.6111 57.374 1.00925 57.3092 0.564811 57.2119ZM14.1758 46.5658H15.7869V43.4304H14.1758V46.5658Z" fill="black"/>
<path d="M73.3764 96.055C73.1485 95.5066 72.9633 94.7836 72.8209 93.8862C72.7069 92.9887 72.6215 92.0165 72.5645 90.9694C72.5075 89.8975 72.4933 88.8504 72.5218 87.8283C72.5787 86.7813 72.6642 85.8465 72.7782 85.0238C72.9206 84.2011 73.0916 83.5779 73.291 83.1541C75.0289 82.9796 76.3964 82.5433 77.3935 81.8453C78.3907 81.1473 79.1029 80.2747 79.5302 79.2277C79.9861 78.1807 80.214 77.0962 80.214 75.9744C80.214 74.9274 80.0146 74.0923 79.6157 73.469C79.2454 72.8209 78.7895 72.3472 78.2482 72.048C77.7354 71.7489 77.2796 71.5619 76.8807 71.4871C76.6243 71.0135 76.4391 70.3902 76.3251 69.6174C76.2112 68.8446 76.1542 68.022 76.1542 67.1494C76.1827 66.252 76.2682 65.3919 76.4106 64.5692C76.5531 63.7216 76.7667 62.9987 77.0516 62.4004C78.932 62.4004 81.553 62.5001 84.9148 62.6995C88.2766 62.874 92.4077 62.9613 97.3079 62.9613C102.493 62.9613 106.781 62.874 110.171 62.6995C113.561 62.5001 116.097 62.4004 117.778 62.4004C118.063 62.9987 118.276 63.7216 118.419 64.5692C118.561 65.3919 118.633 66.252 118.633 67.1494C118.661 68.022 118.618 68.8446 118.504 69.6174C118.39 70.3902 118.205 71.001 117.949 71.4497C117.607 71.4497 117.208 71.5993 116.752 71.8985C116.325 72.1727 115.94 72.7211 115.598 73.5438C115.285 74.3415 115.128 75.5382 115.128 77.1336C115.128 78.6045 115.313 79.7762 115.684 80.6487C116.083 81.5212 116.596 82.1444 117.222 82.5184C117.849 82.8923 118.519 83.1042 119.231 83.1541C119.43 83.5779 119.587 84.2011 119.701 85.0238C119.843 85.8465 119.929 86.7813 119.957 87.8283C120.014 88.8504 120.014 89.8975 119.957 90.9694C119.9 92.0165 119.801 92.9887 119.658 93.8862C119.544 94.7836 119.373 95.5066 119.145 96.055C118.348 96.2046 117.365 96.3043 116.197 96.3542C115.029 96.429 113.761 96.4664 112.393 96.4664C111.054 96.4664 109.729 96.429 108.419 96.3542C107.108 96.3043 105.898 96.2046 104.786 96.055C104.587 95.3071 104.43 94.5343 104.316 93.7366C104.231 92.9389 104.16 92.2284 104.103 91.6051C102.678 91.5553 101.24 91.5179 99.7865 91.493C98.3335 91.468 96.8948 91.4556 95.4703 91.4556C93.5615 91.4556 91.2111 91.493 88.4191 91.5677C88.3906 92.191 88.3194 92.9015 88.2054 93.6992C88.0914 94.5219 87.9348 95.3071 87.7353 96.055C86.6242 96.2046 85.3849 96.3043 84.0174 96.3542C82.6784 96.429 81.3251 96.4664 79.9576 96.4664C78.5901 96.4664 77.3223 96.429 76.1542 96.3542C74.9861 96.3043 74.0602 96.2046 73.3764 96.055ZM94.3165 79.6764H96.7951V74.8526H94.3165V79.6764Z" fill="black"/>
<path d="M47.4235 92.0165C47.1671 91.493 46.9676 90.8323 46.8252 90.0346C46.6827 89.2368 46.5973 88.4142 46.5688 87.5666C46.5403 86.6941 46.5688 85.8589 46.6543 85.0612C46.7682 84.2634 46.9249 83.6028 47.1243 83.0793C47.5517 82.9297 47.979 82.6804 48.4064 82.3314C48.8622 81.9575 49.2326 81.3716 49.5175 80.5739C49.8024 79.7512 49.9448 78.6045 49.9448 77.1336C49.9448 75.5382 49.7739 74.3415 49.432 73.5438C49.0901 72.7211 48.6913 72.1727 48.2354 71.8985C47.8081 71.5993 47.4377 71.4497 47.1243 71.4497C46.8679 71.001 46.6685 70.3902 46.5261 69.6174C46.3836 68.8446 46.3124 68.022 46.3124 67.1494C46.3409 66.252 46.4263 65.3919 46.5688 64.5692C46.7397 63.7216 46.9819 62.9987 47.2953 62.4004C48.15 62.4502 49.2468 62.525 50.5859 62.6247C51.9249 62.7245 53.3351 62.8117 54.8166 62.8865C56.3266 62.9364 57.7226 62.9613 59.0046 62.9613C60.4291 62.9613 61.8963 62.9364 63.4063 62.8865C64.9162 62.8117 66.3407 62.7245 67.6798 62.6247C69.0188 62.525 70.1156 62.4502 70.9703 62.4004C71.2552 62.9987 71.4689 63.7216 71.6114 64.5692C71.7538 65.3919 71.825 66.252 71.825 67.1494C71.825 68.0469 71.768 68.882 71.6541 69.6548C71.5401 70.4276 71.3549 71.0384 71.0985 71.4871C70.6712 71.4871 70.2438 71.6367 69.8165 71.9359C69.3891 72.2101 69.033 72.7461 68.7481 73.5438C68.4632 74.3415 68.3208 75.5382 68.3208 77.1336C68.3208 78.6045 68.4632 79.7512 68.7481 80.5739C69.0615 81.3716 69.4319 81.9575 69.8592 82.3314C70.2866 82.6804 70.7139 82.9297 71.1413 83.0793C71.3692 83.6028 71.5259 84.2634 71.6114 85.0612C71.6968 85.8589 71.7253 86.6941 71.6968 87.5666C71.6683 88.4142 71.5829 89.2368 71.4404 90.0346C71.298 90.8323 71.0985 91.493 70.8421 92.0165C69.9874 91.9417 68.8906 91.8544 67.5515 91.7547C66.2125 91.6799 64.788 91.6051 63.2781 91.5304C61.7681 91.4556 60.3009 91.4182 58.8764 91.4182C57.5659 91.4182 56.1841 91.4556 54.7311 91.5304C53.3066 91.6051 51.9391 91.6799 50.6286 91.7547C49.3465 91.8544 48.2782 91.9417 47.4235 92.0165Z" fill="black"/>
<path d="M1.14032 92.0164C0.9124 91.4929 0.727217 90.8323 0.584767 90.0346C0.442318 89.2368 0.356849 88.4141 0.328359 87.5665C0.328359 86.694 0.356849 85.8589 0.413828 85.0611C0.499298 84.2634 0.641747 83.6028 0.841176 83.0793C1.29701 82.9297 1.73861 82.6804 2.16595 82.3314C2.5933 81.9574 2.94942 81.3716 3.23432 80.5739C3.51922 79.7512 3.66167 78.6044 3.66167 77.1336C3.66167 75.5381 3.49073 74.3415 3.14885 73.5438C2.83546 72.7211 2.45085 72.1727 1.99501 71.8984C1.56767 71.5993 1.18305 71.4497 0.841176 71.4497C0.584767 71.001 0.399583 70.3902 0.285624 69.6174C0.171665 68.8446 0.114685 68.0219 0.114685 67.1494C0.143175 66.2519 0.228644 65.3919 0.371094 64.5692C0.513543 63.7216 0.727217 62.9987 1.01211 62.4004C2.89244 62.4004 5.69869 62.5001 9.43086 62.6995C13.163 62.874 17.7784 62.9613 23.2769 62.9613C28.8609 62.9613 33.3623 62.874 36.7811 62.6995C40.1999 62.5001 42.8637 62.4004 44.7725 62.4004C45.0574 62.9987 45.2711 63.7216 45.4135 64.5692C45.556 65.3919 45.6272 66.2519 45.6272 67.1494C45.6557 68.0219 45.613 68.8446 45.499 69.6174C45.385 70.3902 45.1998 71.001 44.9434 71.4497C44.6016 71.4497 44.2027 71.5993 43.7469 71.8984C43.3195 72.1727 42.9349 72.7211 42.593 73.5438C42.2796 74.3415 42.1229 75.5381 42.1229 77.1336C42.1229 78.6044 42.2654 79.7512 42.5503 80.5739C42.8352 81.3716 43.1913 81.9574 43.6187 82.3314C44.046 82.6804 44.4876 82.9297 44.9434 83.0793C45.1429 83.6028 45.2711 84.2634 45.3281 85.0611C45.4135 85.8589 45.442 86.694 45.4135 87.5665C45.4135 88.4141 45.3423 89.2368 45.1999 90.0346C45.0574 90.8323 44.8722 91.4929 44.6443 92.0164C43.4762 91.9167 42.0517 91.7921 40.3708 91.6425C38.7184 91.4929 36.6244 91.4181 34.0888 91.4181C32.123 91.4181 30.2427 91.4929 28.4478 91.6425C26.6815 91.7921 25.2142 91.9167 24.0461 92.0164C23.6758 90.8448 23.4479 89.4487 23.3624 87.8283C23.2769 86.183 23.4194 84.3382 23.7897 82.294V74.9648H21.9949V82.294C22.3083 84.3382 22.4365 86.183 22.3795 87.8283C22.351 89.4487 22.1658 90.8448 21.8239 92.0164C21.0547 91.9417 20.2285 91.8544 19.3453 91.7547C18.4906 91.6799 17.4792 91.6051 16.3112 91.5303C15.1431 91.4555 13.7186 91.4181 12.0377 91.4181C9.73001 91.4181 7.65025 91.4805 5.79841 91.6051C3.94657 91.7547 2.39387 91.8918 1.14032 92.0164Z" fill="black"/>
<path d="M97.0233 114.754C96.9236 114.525 96.8426 114.236 96.7803 113.887C96.7179 113.538 96.6806 113.178 96.6681 112.807C96.6681 112.425 96.6806 112.06 96.7055 111.711C96.7429 111.362 96.8052 111.073 96.8924 110.844C97.0919 110.778 97.3038 110.669 97.5281 110.516C97.7525 110.364 97.9644 110.113 98.1638 109.764C98.3757 109.415 98.5377 108.924 98.6499 108.292C98.7496 107.768 98.7746 107.343 98.7247 107.015C98.6748 106.677 98.5814 106.421 98.4443 106.247C98.3196 106.061 98.1825 105.936 98.0329 105.87C97.8958 105.794 97.7774 105.756 97.6777 105.756C97.5655 105.559 97.4845 105.292 97.4346 104.954C97.3848 104.616 97.3599 104.256 97.3599 103.874C97.3723 103.482 97.4097 103.105 97.472 102.745C97.5344 102.375 97.6278 102.058 97.7525 101.797C98.2261 101.84 98.7995 101.889 99.4726 101.944C100.158 101.998 100.931 102.026 101.791 102.026C102.489 102.026 103.224 102.015 103.997 101.993C104.782 101.971 105.543 101.944 106.278 101.911C107.013 101.878 107.655 101.84 108.204 101.797C108.129 102.211 108.11 102.729 108.148 103.351C108.198 103.972 108.391 104.572 108.727 105.15C108.74 104.551 108.758 103.951 108.783 103.351C108.821 102.74 108.883 102.222 108.97 101.797C109.494 101.818 109.986 101.851 110.447 101.895C110.909 101.928 111.388 101.96 111.887 101.993C112.398 102.015 112.978 102.026 113.626 102.026C114.05 102.026 114.536 102.015 115.084 101.993C115.633 101.96 116.162 101.928 116.673 101.895C117.184 101.851 117.596 101.818 117.907 101.797C118.032 102.058 118.125 102.375 118.188 102.745C118.25 103.105 118.281 103.482 118.281 103.874C118.294 104.256 118.275 104.616 118.225 104.954C118.175 105.292 118.094 105.559 117.982 105.756C117.895 105.756 117.776 105.794 117.627 105.87C117.49 105.936 117.359 106.061 117.234 106.247C117.122 106.421 117.053 106.672 117.029 106.999C117.004 107.315 117.053 107.735 117.178 108.259C117.34 108.891 117.515 109.388 117.702 109.748C117.901 110.097 118.1 110.353 118.3 110.516C118.512 110.669 118.717 110.778 118.917 110.844C119.004 111.073 119.06 111.362 119.085 111.711C119.123 112.06 119.135 112.425 119.123 112.807C119.123 113.178 119.091 113.538 119.029 113.887C118.967 114.236 118.886 114.525 118.786 114.754C118.275 114.71 117.652 114.656 116.916 114.59C116.193 114.525 115.277 114.492 114.168 114.492C113.108 114.492 112.099 114.525 111.139 114.59C110.192 114.656 109.463 114.71 108.952 114.754C108.902 114.525 108.858 114.236 108.821 113.887C108.783 113.538 108.758 113.178 108.746 112.807C108.734 112.425 108.734 112.06 108.746 111.711C108.758 111.362 108.783 111.073 108.821 110.844H109.475L109.288 109.011L108.185 111.793L104.558 110.402L104.334 110.844L106.372 111.645C106.658 111.754 106.932 111.874 107.194 112.005C107.456 112.125 107.68 112.289 107.867 112.496C108.054 112.703 108.179 112.987 108.241 113.347C108.316 113.696 108.304 114.165 108.204 114.754C107.967 114.732 107.637 114.705 107.213 114.672C106.789 114.65 106.315 114.623 105.792 114.59C105.281 114.568 104.751 114.546 104.203 114.525C103.667 114.503 103.162 114.492 102.688 114.492C101.305 114.492 100.133 114.525 99.1734 114.59C98.2261 114.656 97.5094 114.71 97.0233 114.754Z" fill="black"/>
<path d="M87.515 115.048C84.5236 115.048 82.2613 114.492 80.7282 113.379C79.2075 112.267 78.4472 110.62 78.4472 108.439C78.4472 106.039 79.22 104.278 80.7656 103.154C82.3111 102.031 84.5921 101.469 87.6085 101.469C90.8243 101.469 93.18 102.026 94.6757 103.138C96.1714 104.24 96.9193 105.865 96.9193 108.013C96.9193 110.446 96.1278 112.229 94.5448 113.363C92.9619 114.486 90.6186 115.048 87.515 115.048ZM87.1037 109.306H88.2441V107.195H87.1037V109.306Z" fill="black"/>
<path d="M58.5188 114.754C58.4191 114.525 58.338 114.236 58.2757 113.887C58.2134 113.538 58.176 113.178 58.1636 112.807C58.1636 112.425 58.176 112.06 58.2009 111.711C58.2383 111.362 58.3007 111.073 58.3879 110.844C58.5873 110.778 58.7805 110.669 58.9675 110.516C59.1545 110.353 59.3103 110.097 59.4349 109.748C59.5595 109.388 59.6219 108.886 59.6219 108.242C59.6219 107.544 59.5471 107.021 59.3975 106.672C59.2604 106.312 59.0921 106.072 58.8927 105.952C58.7057 105.821 58.5375 105.756 58.3879 105.756C58.2757 105.559 58.1947 105.292 58.1448 104.954C58.095 104.616 58.0701 104.256 58.0701 103.874C58.0825 103.482 58.1199 103.105 58.1822 102.745C58.2446 102.375 58.338 102.058 58.4627 101.797C58.8117 101.818 59.2666 101.851 59.8275 101.895C60.3884 101.928 61.0116 101.96 61.6972 101.993C62.3827 102.015 63.0807 102.026 63.7912 102.026C64.7135 102.026 65.4926 101.998 66.1282 101.944C66.7764 101.889 67.356 101.84 67.867 101.797C67.9418 102.058 67.9979 102.386 68.0353 102.778C68.0851 103.16 68.1101 103.563 68.1101 103.989C68.1225 104.414 68.1163 104.812 68.0914 105.183C68.0664 105.543 68.0228 105.821 67.9605 106.017H67.3435L67.3248 107.703C67.8857 107.19 68.2472 106.634 68.4092 106.034C68.5712 105.434 68.6523 104.785 68.6523 104.087C68.6523 103.76 68.6336 103.405 68.5962 103.024C68.5712 102.642 68.5338 102.233 68.484 101.797C68.833 101.818 69.2131 101.851 69.6245 101.895C70.0483 101.938 70.5967 101.977 71.2698 102.009C71.9553 102.042 72.8465 102.058 73.9434 102.058C74.6164 102.058 75.1711 102.042 75.6073 102.009C76.0561 101.977 76.4611 101.944 76.8226 101.911C77.1841 101.868 77.5642 101.829 77.9631 101.797C78.0628 102.026 78.1438 102.315 78.2061 102.664C78.2685 103.013 78.2996 103.378 78.2996 103.76C78.3121 104.131 78.2996 104.491 78.2622 104.84C78.2373 105.189 78.1812 105.478 78.094 105.707C77.558 105.739 77.0968 105.832 76.7104 105.985C76.3365 106.137 76 106.328 75.7008 106.557C75.8379 107.779 76.1246 108.722 76.5609 109.388C77.0096 110.042 77.6141 110.527 78.3744 110.844C78.4617 111.073 78.5178 111.362 78.5427 111.711C78.5801 112.06 78.5925 112.425 78.5801 112.807C78.5801 113.178 78.5489 113.538 78.4866 113.887C78.4243 114.236 78.3432 114.525 78.2435 114.754C77.7325 114.71 77.1654 114.656 76.5422 114.59C75.9189 114.525 75.1462 114.492 74.2238 114.492C73.0646 114.492 72.1298 114.508 71.4193 114.541C70.7213 114.574 70.1542 114.606 69.718 114.639C69.2942 114.683 68.9078 114.721 68.5588 114.754C68.5962 114.361 68.6273 114.001 68.6523 113.674C68.6772 113.336 68.6896 113.025 68.6896 112.741C68.6896 112.294 68.6647 111.874 68.6149 111.482C68.5775 111.078 68.4591 110.696 68.2596 110.336C68.0727 109.977 67.7611 109.638 67.3248 109.322V110.844H68.0166C68.0664 111.04 68.0976 111.307 68.1101 111.645C68.135 111.983 68.1412 112.349 68.1288 112.741C68.1163 113.134 68.0914 113.51 68.054 113.87C68.0166 114.23 67.9605 114.525 67.8857 114.754C67.5367 114.721 67.1877 114.683 66.8387 114.639C66.5022 114.606 66.0908 114.574 65.6047 114.541C65.1311 114.508 64.5203 114.492 63.7725 114.492C62.5261 114.492 61.4728 114.519 60.6128 114.574C59.7652 114.639 59.0672 114.699 58.5188 114.754Z" fill="black"/>
<path d="M48.8193 115.048C46.5383 115.048 44.6936 114.759 43.2851 114.181C41.8767 113.603 40.8484 112.796 40.2002 111.76C39.5645 110.713 39.2467 109.502 39.2467 108.128C39.2467 106.721 39.5583 105.521 40.1815 104.529C40.8047 103.536 41.6648 102.778 42.7616 102.255C43.871 101.731 45.1423 101.469 46.5757 101.469C47.5604 101.469 48.4017 101.557 49.0997 101.731C49.7977 101.906 50.3337 102.206 50.7076 102.631C51.094 103.056 51.2935 103.645 51.3059 104.398C51.4804 103.983 51.5427 103.563 51.4929 103.138C51.4555 102.702 51.4119 102.266 51.362 101.829C51.9603 101.818 52.6396 101.808 53.3999 101.797C54.1602 101.775 54.9019 101.753 55.6248 101.731C56.3477 101.709 56.9585 101.698 57.457 101.698C57.5443 102.037 57.6128 102.462 57.6627 102.975C57.7126 103.476 57.7375 104.016 57.7375 104.594C57.75 105.172 57.7375 105.739 57.7001 106.296C57.6627 106.852 57.6004 107.348 57.5131 107.784C57.1267 107.839 56.6406 107.882 56.0548 107.915C55.469 107.948 54.8333 107.97 54.1478 107.981C53.4747 107.981 52.8016 107.981 52.1286 107.981C51.468 107.97 50.8572 107.948 50.2963 107.915C49.7354 107.882 49.2742 107.839 48.9128 107.784L48.8941 107.114H47.9032V109.224H48.8941V108.455C50.3399 108.39 51.7609 108.357 53.1569 108.357C54.5653 108.357 56.061 108.39 57.644 108.455C57.5817 109.949 57.2389 111.187 56.6157 112.169C56.005 113.139 55.0639 113.865 53.7925 114.345C52.5212 114.814 50.8634 115.048 48.8193 115.048Z" fill="black"/>
<path d="M19.3548 114.754C19.2551 114.525 19.1741 114.236 19.1118 113.887C19.0495 113.538 19.0121 113.178 18.9996 112.807C18.9996 112.425 19.0121 112.06 19.037 111.711C19.0744 111.362 19.1367 111.073 19.224 110.844C19.4234 110.778 19.6166 110.669 19.8036 110.516C19.9905 110.353 20.1463 110.097 20.271 109.748C20.3956 109.388 20.4579 108.886 20.4579 108.242C20.4579 107.544 20.3831 107.021 20.2336 106.672C20.0965 106.312 19.9282 106.072 19.7288 105.952C19.5418 105.821 19.3735 105.756 19.224 105.756C19.1118 105.559 19.0308 105.292 18.9809 104.954C18.9311 104.616 18.9061 104.256 18.9061 103.874C18.9186 103.482 18.956 103.105 19.0183 102.745C19.0806 102.375 19.1741 102.058 19.2988 101.797C19.7973 101.84 20.3894 101.895 21.0749 101.96C21.7605 102.015 22.6766 102.042 23.8233 102.042C24.8204 102.042 25.6493 102.026 26.3099 101.993C26.9705 101.949 27.5252 101.911 27.9739 101.878C28.4351 101.835 28.8402 101.808 29.1892 101.797C29.2141 102.473 29.2016 103.051 29.1518 103.531C29.1019 104.011 29.0022 104.436 28.8526 104.807C28.7031 105.178 28.4912 105.527 28.217 105.854C27.9552 106.181 27.6124 106.53 27.1887 106.901L27.5813 107.244C28.03 106.852 28.3977 106.476 28.6844 106.116C28.9711 105.756 29.1954 105.379 29.3574 104.987C29.5195 104.583 29.6254 104.125 29.6753 103.613C29.7376 103.1 29.7625 102.495 29.7501 101.797C30.3234 101.829 30.8158 101.862 31.2271 101.895C31.6384 101.928 32.0123 101.955 32.3489 101.977C32.6979 101.987 33.0406 101.998 33.3772 102.009C33.7262 102.02 34.1126 102.026 34.5364 102.026C35.359 102.026 36.1692 101.998 36.9669 101.944C37.7771 101.889 38.4377 101.84 38.9487 101.797C39.0734 102.058 39.1668 102.375 39.2292 102.745C39.2915 103.105 39.3227 103.482 39.3227 103.874C39.3351 104.256 39.3164 104.616 39.2666 104.954C39.2167 105.292 39.1357 105.559 39.0235 105.756C38.8739 105.756 38.6994 105.821 38.5 105.952C38.313 106.072 38.1448 106.312 37.9952 106.672C37.8581 107.021 37.7895 107.544 37.7895 108.242C37.7895 108.886 37.8519 109.388 37.9765 109.748C38.1012 110.097 38.257 110.353 38.4439 110.516C38.6309 110.669 38.8241 110.778 39.0235 110.844C39.1108 111.073 39.1669 111.362 39.1918 111.711C39.2292 112.06 39.2416 112.425 39.2292 112.807C39.2292 113.178 39.198 113.538 39.1357 113.887C39.0734 114.236 38.9923 114.525 38.8926 114.754C38.3816 114.71 37.7335 114.656 36.9482 114.59C36.163 114.525 35.2967 114.492 34.3494 114.492C32.8412 114.492 31.6696 114.525 30.8345 114.59C29.9994 114.656 29.3699 114.71 28.9461 114.754C28.9337 114.077 28.9461 113.499 28.9835 113.02C29.0334 112.54 29.1331 112.114 29.2827 111.743C29.4322 111.373 29.6379 111.024 29.8996 110.696C30.1739 110.369 30.5229 110.02 30.9466 109.649L30.554 109.306C30.1053 109.698 29.7376 110.075 29.4509 110.435C29.1642 110.795 28.9399 111.176 28.7779 111.58C28.6158 111.972 28.5036 112.425 28.4413 112.938C28.3915 113.45 28.3728 114.056 28.3852 114.754C27.8867 114.721 27.413 114.683 26.9643 114.639C26.5156 114.606 26.0482 114.574 25.5621 114.541C25.076 114.508 24.5275 114.492 23.9168 114.492C22.9321 114.492 22.0409 114.519 21.2432 114.574C20.4579 114.639 19.8285 114.699 19.3548 114.754Z" fill="black"/>
<path d="M4.50935 114.754C4.40964 114.525 4.32862 114.236 4.2663 113.887C4.20398 113.538 4.16659 113.178 4.15412 112.807C4.15412 112.425 4.16659 112.06 4.19151 111.711C4.22891 111.362 4.29123 111.073 4.37848 110.844C4.77734 110.756 5.08271 110.516 5.2946 110.124C5.5065 109.72 5.61244 109.039 5.61244 108.079V106.901H5.01416C5.12634 107.73 5.10764 108.548 4.95807 109.355C4.47196 109.442 4.01078 109.502 3.57453 109.535C3.13828 109.557 2.6771 109.557 2.19099 109.535C1.70489 109.502 1.13776 109.442 0.489616 109.355C0.41483 108.973 0.358741 108.504 0.321348 107.948C0.283955 107.381 0.265259 106.786 0.265259 106.165C0.265259 105.532 0.277723 104.921 0.302652 104.332C0.32758 103.743 0.364973 103.225 0.41483 102.778C0.464688 102.32 0.520777 101.987 0.583098 101.78C1.31849 101.78 2.42782 101.824 3.91107 101.911C5.39432 101.987 7.28266 102.026 9.57609 102.026C11.1341 102.026 12.4678 102.004 13.5771 101.96C14.6865 101.917 15.6213 101.878 16.3816 101.846C17.1544 101.802 17.7901 101.78 18.2886 101.78C18.351 102.02 18.4071 102.38 18.4569 102.86C18.5068 103.329 18.5442 103.863 18.5691 104.463C18.594 105.052 18.6065 105.658 18.6065 106.279C18.6065 106.89 18.5878 107.468 18.5504 108.013C18.513 108.548 18.4569 108.995 18.3821 109.355C17.734 109.442 17.1731 109.502 16.6994 109.535C16.2258 109.557 15.7646 109.557 15.3159 109.535C14.8797 109.502 14.3811 109.442 13.8202 109.355C13.6706 108.559 13.6519 107.746 13.7641 106.917H13.1658V108.079C13.1658 108.722 13.2281 109.235 13.3528 109.617C13.4899 109.998 13.6644 110.282 13.8763 110.467C14.0882 110.653 14.325 110.778 14.5867 110.844C14.674 111.073 14.7301 111.362 14.755 111.711C14.7924 112.06 14.8049 112.425 14.7924 112.807C14.7924 113.178 14.7612 113.538 14.6989 113.887C14.6366 114.236 14.5556 114.525 14.4559 114.754C13.9074 114.699 13.2157 114.639 12.3806 114.574C11.5579 114.519 10.5919 114.492 9.48261 114.492C8.32343 114.492 7.33875 114.519 6.52857 114.574C5.73086 114.639 5.05778 114.699 4.50935 114.754Z" fill="black"/>
<path d="M60.8019 16.7109C60.6194 16.7109 60.2674 16.6993 59.746 16.6763C59.2245 16.6301 58.664 16.561 58.0644 16.4687C57.7776 15.7998 57.6342 15.0502 57.6342 14.2198C57.6342 13.3664 57.7254 12.5822 57.9079 11.8671H60.5672V10.8638H57.5169C57.3344 11.4174 57.1519 12.0171 56.9694 12.6629C56.7869 13.2857 56.487 13.8854 56.0699 14.462C55.6528 15.0156 54.9879 15.4769 54.0754 15.8459C53.189 16.1919 51.9246 16.3649 50.2821 16.3649C49.7085 16.3649 49.1349 16.3534 48.5613 16.3303C47.9878 16.2842 47.4012 16.215 46.8015 16.1227C46.5147 15.4538 46.3713 14.7042 46.3713 13.8738C46.3713 13.0435 46.4626 12.3169 46.6451 11.6942C47.5055 11.7403 48.3267 11.7633 49.1088 11.7633C49.9171 11.7633 50.6862 11.6596 51.4162 11.452L51.1033 10.4832C50.8426 10.5524 50.5819 10.5985 50.3212 10.6216C50.0604 10.6447 49.7737 10.6562 49.4608 10.6562C48.3397 10.6562 47.349 10.2526 46.4887 9.44528C45.6544 8.63799 45.2372 7.56545 45.2372 6.22766C45.2372 4.7976 45.6153 3.62126 46.3713 2.69865C47.1535 1.77603 48.1833 1.09561 49.4608 0.657364C50.7644 0.219121 52.1983 0 53.7626 0C54.6751 0 55.4703 0.069196 56.1481 0.207588C56.852 0.322915 57.4517 0.495905 57.947 0.726559C56.7217 1.25706 55.9135 1.99516 55.5224 2.94084C55.1574 3.88652 55.2747 4.8322 55.8744 5.77788C56.0569 4.20943 56.8651 2.91777 58.299 1.90289C59.7329 0.864952 61.7274 0.345981 64.2824 0.345981C66.342 0.345981 68.0497 0.657364 69.4054 1.28013C70.7611 1.90289 71.7779 2.75631 72.4558 3.84039C73.1336 4.92446 73.4725 6.15846 73.4725 7.54238C73.4725 9.11083 73.1336 10.4717 72.4558 11.625C71.7779 12.7782 70.8393 13.7354 69.6401 14.4966C68.4668 15.2347 67.1242 15.7883 65.612 16.1573C64.0999 16.5264 62.4965 16.7109 60.8019 16.7109Z" fill="black"/>
<path d="M57.9447 150C58.1298 150 58.4866 149.988 59.0153 149.965C59.544 149.919 60.1123 149.85 60.7202 149.758C61.011 149.089 61.1564 148.339 61.1564 147.509C61.1564 146.656 61.0639 145.871 60.8788 145.156H58.1826V144.153H61.2754C61.4604 144.706 61.6454 145.306 61.8305 145.952C62.0155 146.575 62.3195 147.174 62.7424 147.751C63.1653 148.305 63.8394 148.766 64.7646 149.135C65.6633 149.481 66.9453 149.654 68.6106 149.654C69.1922 149.654 69.7737 149.642 70.3553 149.619C70.9368 149.573 71.5315 149.504 72.1395 149.412C72.4303 148.743 72.5757 147.993 72.5757 147.163C72.5757 146.333 72.4832 145.606 72.2981 144.983C71.4258 145.029 70.5932 145.052 69.8002 145.052C68.9807 145.052 68.2009 144.949 67.4608 144.741L67.778 143.772C68.0423 143.842 68.3067 143.888 68.571 143.911C68.8353 143.934 69.1261 143.945 69.4433 143.945C70.5799 143.945 71.5844 143.542 72.4567 142.734C73.3026 141.927 73.7255 140.855 73.7255 139.517C73.7255 138.087 73.3422 136.91 72.5757 135.988C71.7827 135.065 70.7385 134.385 69.4433 133.946C68.1216 133.508 66.6678 133.289 65.0818 133.289C64.1566 133.289 63.3504 133.358 62.6631 133.497C61.9494 133.612 61.3414 133.785 60.8392 134.016C62.0816 134.546 62.901 135.284 63.2975 136.23C63.6676 137.176 63.5486 138.121 62.9407 139.067C62.7556 137.499 61.9362 136.207 60.4823 135.192C59.0285 134.154 57.0063 133.635 54.4159 133.635C52.3276 133.635 50.5962 133.946 49.2217 134.569C47.8471 135.192 46.8162 136.045 46.129 137.13C45.4417 138.214 45.0981 139.448 45.0981 140.832C45.0981 142.4 45.4417 143.761 46.129 144.914C46.8162 146.067 47.7678 147.025 48.9838 147.786C50.1733 148.524 51.5346 149.077 53.0678 149.446C54.6009 149.815 56.2266 150 57.9447 150Z" fill="black"/>
</svg>
