<svg width="221" height="220" viewBox="0 0 221 220" fill="none" xmlns="http://www.w3.org/2000/svg">
<path d="M128.417 0.631631C131.665 0.160874 135.096 -0.418223 138.283 0.665267C145.981 3.31421 152.119 8.90726 157.342 14.8702C161.108 19.0808 165.531 23.3326 166.465 29.1311C166.713 31.4588 167.33 34.1301 165.916 36.2373C164.36 38.763 161.825 40.5937 160.651 43.3772C156.739 51.324 151.451 58.5348 145.435 65.0769C150.327 72.9527 153.834 81.5347 157.185 90.1204C162.233 103.817 166.042 117.932 169.164 132.16C169.782 134.611 169.846 137.226 170.803 139.591C174.341 142.987 180.033 144.153 182.393 148.733C185.222 153.661 184.684 159.516 185.759 164.892C196.583 170.904 207.845 176.209 218.558 182.441C219.751 183.028 220.559 184.208 220.689 185.509C221.013 188.804 221.101 192.14 220.872 195.454C220.834 196.691 219.564 197.233 218.573 197.662C201.505 204.287 184.532 211.157 167.494 217.868C161.829 220.184 155.554 219.142 149.595 219.392C144.395 219.127 139.019 219.964 133.922 218.689C134.437 217.393 135.249 216.126 136.663 215.663C160.109 206.487 183.544 197.274 207.048 188.243C209.595 187.238 212.161 186.289 214.654 185.161C212.523 183.685 210.189 182.512 207.913 181.287C199.633 177.02 191.581 172.26 182.889 168.823C182.313 169.835 181.745 170.859 181.181 171.887C187.418 175.697 194.196 178.556 200.597 182.075C201.634 182.452 201.429 183.517 201.39 184.485C200.845 184.885 200.224 185.172 199.599 185.438C170.986 196.06 142.557 207.148 114.143 218.26C111.993 218.947 108.916 219.728 107.662 217.367C109.358 216.515 111.082 215.704 112.763 214.815C101.894 212.009 92.6371 205.486 82.8506 200.341C74.3184 195.391 65.7671 190.459 57.315 185.378C56.0035 184.672 55.1952 183.42 54.6882 182.083C62.6066 178.769 70.9139 176.501 79.0305 173.717C88.9886 170.276 99.0115 167.015 109.088 163.925C107.662 162.359 106.103 160.887 104.154 159.964C101.688 160.233 99.3546 161.085 97.0214 161.855C84.0363 166.514 70.6699 170.089 57.7648 174.969C53.0107 176.796 48.1994 178.496 43.4606 180.364C61.1426 191.158 78.8819 201.877 96.5944 212.629C98.4282 213.795 100.536 214.673 102.019 216.287C102.992 217.498 101.573 219.328 100.094 218.917C96.6478 218.204 93.8342 215.88 90.8719 214.143C74.8597 204.122 58.6989 194.333 42.5609 184.511C39.3279 182.475 35.9387 180.67 32.904 178.35C34.1773 176.93 36.0569 176.418 37.8563 175.951C58.2795 170.101 78.6493 164.037 98.7217 157.106C97.0328 155.926 95.5498 154.274 93.5406 153.688C89.2059 154.614 85.0961 156.351 80.8529 157.611C70.9101 160.738 61.0359 164.059 51.1236 167.28C40.6394 170.631 30.0828 173.807 19.7435 177.562C36.6516 187.22 53.2318 197.423 69.9951 207.32C75.1037 210.5 80.464 213.302 85.3706 216.788C85.0885 217.52 84.8026 218.256 84.509 218.988C78.5425 218.94 72.5761 219.044 66.6096 219.1C64.0058 219.041 61.7412 217.699 59.5643 216.452C47.9402 209.629 36.2208 202.956 24.5929 196.142C21.7374 194.356 18.8323 192.63 16.175 190.571C15.1228 189.816 14.3908 188.583 14.7111 187.231C14.6005 183.278 14.1468 179.307 14.5243 175.361C35.3744 168.797 56.0187 161.608 76.7888 154.801C80.9711 153.576 85.1266 152.257 89.1907 150.684C87.6047 149.548 86.236 147.99 84.3412 147.347C82.7248 147.28 81.2417 148.214 79.7053 148.558C60.8643 154.386 42.1072 160.461 23.3767 166.622C17.4675 168.326 11.6688 170.351 5.83575 172.283C3.98672 172.91 1.90513 172.981 0.105668 172.163C-0.264138 154.689 0.0484792 136.77 5.88149 120.073C6.09499 118.418 4.85595 116.729 5.88149 115.142C11.0397 103.851 16.7812 92.8142 22.6791 81.8747C29.1106 70.0572 37.2807 59.1214 47.0328 49.7249C53.5673 43.6424 61.4476 38.6285 70.323 36.6633C78.92 34.5822 87.8449 35.1688 96.6096 35.3444C98.2261 35.0455 99.8426 33.9583 100.777 32.6207C101.272 29.8448 100.674 26.8857 101.775 24.2031C103.564 18.6138 107.246 13.8166 111.539 9.82261C116.122 5.2869 121.924 1.71512 128.417 0.631631ZM114.684 20.7659C112.576 20.9938 111.158 22.8058 109.995 24.3563C107.955 27.0165 107.353 30.5509 107.936 33.7864C108.489 35.9721 110.224 37.616 111.047 39.6858C110.605 40.6759 109.385 41.6324 108.299 40.8926C106.35 39.5289 105.413 37.2162 104.063 35.3556C100.96 37.2013 95.7785 38.0905 95.8967 42.6673C95.5879 47.5804 96.5601 52.5121 98.1842 57.145C99.8502 61.7741 103.701 65.2599 108.077 67.4643C106.671 64.154 104.265 60.8027 105.233 57.0628C106.24 49.6128 112.366 44.4457 116.411 38.5015C119.4 34.2684 121.07 28.9705 119.984 23.8258C119.286 21.7485 116.983 20.0485 114.684 20.7659ZM129.968 31.9744C128.623 33.2783 126.789 34.2945 126.179 36.1514C124.898 39.7045 123.354 43.2128 122.69 46.9452C122.328 48.9851 123.041 51.1634 124.513 52.6354C126.247 53.8833 128.562 53.9094 130.525 54.6492C135.001 55.6019 138.173 59.0766 141.596 61.7778C142.378 61.2622 143.144 60.7354 143.926 60.2236C144.498 55.3217 144.921 50.0761 147.997 45.9514C150.064 46.1233 152.134 46.3362 154.212 46.4483C156.019 43.7134 157.669 40.8702 158.947 37.8626C154.947 35.4528 150.651 33.5062 146.915 30.6966C143.461 28.3204 140.456 25.3987 137.669 22.3126C135.233 25.6229 133.159 29.2769 129.968 31.9744ZM149.621 49.3737C148.97 51.5145 148.287 53.6554 147.73 55.8261C149.412 53.9393 150.96 51.9442 152.431 49.893C151.49 49.7174 150.552 49.5418 149.621 49.3737ZM124.376 61.393C126.034 64.5463 129.294 67.6922 133.178 67.2775C130.742 64.6883 127.727 62.667 124.376 61.393ZM146.602 90.9013C140.864 91.7681 136.579 95.8741 132.172 99.1956C132.431 99.9914 132.771 100.948 133.125 101.762C137.212 110.086 140.384 118.796 144.051 127.299C146.4 132.541 147.803 138.13 150.087 143.394C151.211 146.843 147.936 149.361 146.095 151.838C147.105 153.676 148.157 155.492 149.244 157.293C151.044 156.972 152.851 156.691 154.661 156.4C155.123 155.044 154.574 152.645 156.499 152.556C158.421 151.786 160.071 153.893 159.694 155.582C158.985 160.94 156.8 166.181 157.689 171.659C159.065 171.405 160.811 171.139 161.371 169.645C163.487 165.767 163.308 161.212 164.414 157.039C165.416 157.357 166.564 157.51 167.441 158.152C167.387 163.443 166.457 168.83 164.196 173.676C165.439 173.011 166.617 172.238 167.727 171.375C170.231 167.474 170.022 162.677 171.329 158.384C171.955 157.207 174.025 156.863 174.364 158.455C174.986 163.106 173.167 167.668 172.183 172.17C173.274 171.192 174.395 170.194 175.119 168.913C176.976 165.86 176.438 162.12 177.029 158.773C177.227 157.401 178.821 156.811 180.136 157.222C180.918 160.405 180.243 163.745 180.517 166.992C182.206 164.522 181.592 161.395 181.436 158.619C181.028 155.361 180.498 151.734 177.974 149.324C174.173 146.361 169.656 144.485 165.721 141.717C166.655 137.678 165.306 133.613 164.459 129.686C161.23 117.357 158.6 104.762 153.457 93.0159C152.443 90.3857 148.981 90.3072 146.602 90.9013ZM51.7984 100.922C53.4797 105.394 55.4202 109.78 57.6695 114.013C59.7892 118.112 62.0424 122.255 65.3172 125.599C69.549 129.851 74.6272 133.146 79.1754 137.043C88.0546 144.609 98.0202 150.781 107.654 157.353C109.576 158.548 110.918 160.387 112.469 161.986C115.79 165.714 121.268 166.536 124.7 170.142C127.098 173.542 126.846 177.924 127.593 181.825C128.901 180.521 130.761 179.374 130.739 177.308C131.085 172.85 129.423 168.576 128.478 164.291C129.545 164.022 130.575 163.712 131.669 163.517C133.053 166.562 134.093 169.776 134.616 173.075C134.757 175.787 134.486 178.514 134.196 181.219C135.897 180.076 137.254 178.29 137.239 176.183C137.948 171.371 135.576 166.951 134.86 162.307C136.042 162.311 137.669 161.399 138.409 162.677C140.994 167.22 141.448 172.574 141.379 177.693C142.183 176.856 143.087 176.056 143.575 174.991C145.432 170.627 142.256 166.293 141.722 161.956C142.805 161.821 144.173 161.231 145.081 162.109C147.456 165.643 147.795 169.966 148.539 174.024C149.332 172.215 150.251 170.22 149.519 168.229C148.741 164.175 146.556 160.6 144.593 157.02C143.8 155.836 143.167 154.304 141.661 153.886C135.901 151.976 129.705 151.569 124.01 149.503C119.865 145.995 116.236 141.941 112.328 138.186C104.029 130.239 96.4686 121.598 88.432 113.404C86.6325 111.45 84.4671 109.705 83.3233 107.277C81.8594 102.7 81.1198 97.9365 79.5643 93.3895C69.7701 93.0122 59.9875 95.6425 51.7984 100.922ZM110.201 104.908C106.366 109.25 103.213 114.529 97.8296 117.215C105.073 125.259 112.774 132.896 120.799 140.185C124.673 139.707 128.44 137.674 132.378 138.354C136.857 140.137 140.963 142.759 145.535 144.358C145.169 142.64 144.616 140.973 143.968 139.348C141.036 131.887 138.371 124.321 135.088 116.995C133.186 112.851 131.783 108.387 128.886 104.766C126.145 101.437 122.385 99.1507 118.684 96.9949C115.546 99.289 112.649 101.908 110.201 104.908ZM123.297 143.678C124.543 144.784 125.725 146.141 127.487 146.432C131.653 147.601 135.866 148.618 140.113 149.484C141.104 149.701 142.126 149.63 143.129 149.537C139.633 146.693 135.493 144.687 131.493 142.625C128.76 141.978 125.942 143.2 123.297 143.678ZM166.297 177.035C164.288 177.79 162.256 176.572 160.243 176.848C156.259 178.402 152.271 180.035 148.039 180.846C144.57 181.735 140.777 181.754 137.7 183.764C135.474 185.056 132.679 184.377 130.441 185.606C127.708 187.119 124.681 187.945 121.688 188.811C122.839 192.671 124.032 196.523 125.512 200.281C144.063 194.106 162.702 188.187 181.329 182.251C180.205 179.157 178.996 176.093 177.73 173.052C174.28 175.238 170.128 175.787 166.297 177.035ZM108.226 173.807C107.799 177.663 110.239 180.842 112.061 184.014C114.402 187.959 116.305 192.204 119.404 195.667C118.177 188.953 114.974 182.777 111.829 176.762C111.207 175.204 109.747 174.337 108.226 173.807ZM120.315 185.296C121.547 185.086 122.82 184.933 124.048 184.668C123.628 183.637 123.209 182.606 122.858 181.552C121.966 182.77 121.101 184.007 120.315 185.296Z" fill="#000100"/>
<path d="M112.53 27.7824C112.309 26.6092 113.434 25.8171 114.078 24.9989C116.835 26.867 117.067 30.5135 117.018 33.5248C116.876 34.9595 116.781 36.7081 115.565 37.7318C113.678 38.8713 113.102 36.8911 113.125 35.6769C113.167 33.0279 112.908 30.3977 112.53 27.7824Z" fill="#000100"/>
<path d="M134.662 40.1118C138.257 40.3323 141.452 42.0696 144.654 43.5192C143.869 44.4271 143.842 47.3189 141.623 45.8842C138.924 45.2266 136.37 44.1207 133.811 43.0746C134.055 42.0509 134.387 41.1131 134.662 40.1118Z" fill="#000100"/>
<path d="M133.739 47.2216C135.409 46.863 137.868 47.2104 138.417 49.1009C139.362 52.1496 133.232 53.476 132.576 50.3301C131.928 49.0337 132.63 47.812 133.739 47.2216Z" fill="#000100"/>
</svg>
