<svg width="221" height="220" viewBox="0 0 221 220" fill="none" xmlns="http://www.w3.org/2000/svg">
<path d="M89.3454 2.98681C96.3653 -0.183862 104.566 -1.06222 111.905 1.48479C116.149 2.86303 120.227 4.75067 124.115 6.9668C129.114 10.0042 132.558 14.9625 135.561 19.9446C137.944 23.9056 140.39 27.9856 141.229 32.6392C142.188 37.3238 142.743 42.3012 141.312 46.9501C140.586 49.1138 139.447 51.1181 138.055 52.901C137.158 54.2079 135.912 55.36 135.566 56.9882C133.698 64.6197 130.961 72.075 126.93 78.7853C129.866 81.4728 132.956 84.0293 135.438 87.1904C138.018 90.3897 139.844 94.1221 141.918 97.6665C144.183 101.47 146.277 105.381 148.508 109.207C149.062 110.392 149.654 112.127 148.429 113.091C147.061 114.72 145.239 115.841 143.686 117.262C141.268 119.533 138.129 120.951 134.868 121.256C128.372 121.958 121.826 121.487 115.315 121.954C121.701 123.201 128.22 123.827 134.72 123.503C139.301 123.206 143.746 121.156 146.954 117.769C148.071 116.538 149.115 115.227 150.368 114.136C152.028 112.825 154.293 112.984 156.269 112.77C156.279 110.663 156.191 108.552 156.348 106.452C156.464 105.722 156.734 104.81 157.527 104.608C159.009 104.189 161.295 103.989 162.182 105.569C162.411 107.938 162.39 110.325 162.353 112.703C163.752 112.901 165.252 112.701 166.606 113.191C167.751 113.963 168.016 115.593 168.035 116.902C168.243 124.434 167.885 131.975 168.153 139.504C167.991 140.499 168.751 141.163 169.195 141.92C172.552 146.807 175.432 152.018 178.531 157.076C180.785 160.697 184.969 162.032 188.154 164.555C190.526 166.312 192.419 168.904 192.98 171.896C193.29 172.768 193.248 173.87 193.856 174.608C195.34 175.519 197.067 175.905 198.669 176.564C203.125 178.34 207.621 180.013 212.075 181.796C215.066 182.994 218.141 183.993 221 185.514C220.66 186.44 220.001 187.252 219.026 187.476C212.295 189.416 205.564 191.361 198.835 193.313C194.931 194.472 190.928 195.305 187.093 196.695C191.124 198.966 195.375 200.789 199.492 202.884C200.372 203.21 200.939 203.984 201.207 204.898C188.857 209.633 176.375 214.008 163.985 218.642C162.922 219.375 161.794 218.707 160.89 218.102C156.76 215.474 152.481 213.103 148.3 210.566C147.463 210.163 146.621 209.371 145.637 209.671C132.942 212.901 120.236 216.076 107.541 219.302C105.186 219.906 102.512 220.489 100.309 219.076C85.1709 211.38 69.966 203.81 54.812 196.155C54.1255 195.907 53.9637 195.143 53.6886 194.548C55.235 194.231 56.7929 193.991 58.3462 193.713C51.9365 192.427 45.5568 190.892 39.3528 188.778C36.6022 187.938 33.803 188.897 31.0801 189.342C21.6631 191.073 12.2531 192.829 2.8408 194.577C1.90234 194.743 0.945393 194.846 0 194.693C0.0762786 176.69 2.28836 158.69 6.5276 141.223C5.3996 139.79 3.96649 138.392 3.64751 136.502C3.5666 134.358 4.21382 132.28 4.60677 130.194C6.47444 121.218 8.90149 112.337 12.334 103.853C14.6571 98.2283 17.5649 92.8391 21.1962 87.9974C25.202 82.7248 30.4953 78.4544 36.5328 75.9289C40.6773 74.1745 44.9443 72.7391 49.2367 71.4156C48.044 69.5732 46.671 67.7189 46.278 65.4861C45.4135 61.8322 46.9044 58.1712 48.6057 55.0339C50.33 51.8489 52.9212 49.3447 55.2303 46.6287C59.0235 42.1036 62.003 36.9215 64.7166 31.6585C67.0928 27.3691 69.0992 22.8463 71.9423 18.8473C76.3572 12.2203 82.1082 6.24793 89.3454 2.98681ZM118.805 33.3105C112.137 40.1731 102.313 42.5964 93.127 42.2822C91.4118 44.1079 89.4425 45.8527 87.0247 46.5573C84.8773 47.3928 82.552 47.1024 80.3122 47.1881C80.0995 45.1219 79.9169 42.9725 78.9599 41.1062C78.2364 39.9303 77.083 39.021 75.7747 38.6592C74.2538 38.3997 72.6103 38.9472 71.6187 40.1803C68.4566 43.777 67.4765 49.4233 69.6493 53.8008C70.8906 56.4192 73.142 59.0043 76.1769 59.0472C75.495 61.9608 75.4118 65.0077 74.4133 67.8451C73.4263 70.523 71.8175 72.9938 69.6123 74.772C67.6568 76.5835 64.8854 76.9262 62.3659 77.0738C62.8328 79.9112 63.339 82.8034 64.5965 85.4052C66.4641 88.9448 68.801 92.2583 71.7805 94.9005C74.9056 97.7831 78.8097 99.9469 83.0143 100.452C87.5008 100.942 91.8487 97.7355 93.0183 93.2866C88.43 91.1704 84.8796 87.238 82.2838 82.8867C80.4901 79.8565 79.6349 76.324 79.5563 72.7939C83.2916 80.573 89.2252 87.3999 96.89 91.1823C99.472 92.4535 102.486 92.3725 105.216 91.6798C110.602 90.3492 114.857 86.3644 118.685 82.4606C122.802 78.3711 125.441 73.0391 127.702 67.7023C129.2 64.1269 130.122 60.3445 131.315 56.6573C128.347 56.2217 125.238 55.7765 122.321 56.6906C120.761 57.1857 119.711 58.6592 119.293 60.2279C117.978 65.229 119.099 70.7301 116.762 75.4837C114.492 79.5089 107.269 78.1902 106.802 73.439C108.785 72.7439 110.31 74.7077 112.174 74.9315C112.932 75.1409 113.907 74.8553 114.205 74.046C115.109 72.0107 115.449 69.7541 115.749 67.5523C116.133 64.165 115.876 60.504 117.46 57.3928C118.384 55.3195 120.497 54.1626 122.534 53.5556C125.696 52.7416 128.996 53.2152 132.191 53.5842C132.727 50.5992 133.994 47.6666 133.571 44.5673C133.171 41.38 131.202 38.7568 129.48 36.2027C127.341 33.2915 125.125 30.4421 122.866 27.6333C121.456 29.4757 120.534 31.7156 118.805 33.3105ZM78.4907 115.588C74.7022 116.091 71.3321 118.495 69.1801 121.687C65.6435 126.448 64.356 132.665 64.7606 138.566C64.8784 146.062 67.8325 153.946 74.018 158.292C78.4075 161.608 84.8681 161.673 89.2668 158.335C94.8837 154.308 97.6066 147.095 97.7915 140.23C98.1498 132.634 95.8799 124.436 90.1082 119.359C87.0201 116.426 82.693 114.815 78.4907 115.588ZM12.6368 133.198C11.6198 133.515 11.8417 134.891 11.7307 135.688C11.1875 144.653 10.9217 153.727 12.2277 162.637C12.8194 166.445 13.2355 170.468 15.2696 173.808C16.5363 175.422 18.3993 176.398 20.1676 177.331C28.8749 181.554 38.2456 183.986 47.3968 186.936C56.1133 189.487 65.105 190.825 74.0735 192.037C76.274 192.349 78.5161 192.477 80.6543 193.146C84.4058 194.615 88.0949 196.426 92.1007 197.038C95.6118 197.383 99.146 196.707 102.655 197.138C107.183 197.519 111.346 199.547 115.738 200.575C117.229 200.885 118.736 200.335 120.206 200.113C116.122 196.914 111.131 195.26 106.656 192.748C105.838 192.246 106.332 191.139 106.277 190.332C107.271 190.39 108.295 190.397 109.229 190.799C113.283 192.475 117.192 194.524 120.892 196.917C122.291 197.721 123.655 198.84 125.321 198.942C126.23 198.74 127.133 198.469 128 198.119C124.917 194.812 120.955 192.637 117.219 190.23C115.167 188.866 112.779 188.1 110.849 186.54C110.23 185.86 110.512 184.722 111.286 184.317C112.421 184.203 113.489 184.65 114.455 185.203C120.266 188.361 125.948 191.88 130.913 196.336C132.126 197.471 133.811 196.897 135.147 196.369C134.176 194.7 133.002 193.144 131.599 191.839C127.224 187.828 122.05 184.874 116.729 182.418C116.078 182.046 115.132 181.749 114.933 180.911C114.42 180.056 115.262 179.114 116.054 179.276C117.897 179.399 119.51 180.397 121.149 181.18C127.032 184.289 133.005 187.866 136.911 193.524C137.149 194.029 137.708 193.651 138.085 193.553C138.044 193.146 137.979 192.732 137.778 192.377C136.546 190.023 134.625 188.161 132.688 186.426C129.498 183.624 126.174 180.956 122.554 178.766C120.192 177.324 117.92 175.531 115.181 174.927C105.607 173.046 96.4971 178.849 86.9068 177.428C83.6592 177.128 80.8369 175.376 77.9105 174.065C64.786 168 51.6545 161.949 38.6109 155.7C39.376 148.542 40.7051 141.468 41.6874 134.343C35.7493 132.922 29.7579 131.275 23.6071 131.416C19.9087 131.47 16.1063 131.785 12.6368 133.198ZM123.389 141.094C120.123 141.356 116.526 142.111 114.439 144.981C112.208 148.112 111.297 152.096 111.448 155.941C111.591 160.911 112.444 165.841 113.792 170.611C115.745 170.887 117.746 171.218 119.526 172.139C120.775 172.732 122.053 173.536 123.495 173.146C134.031 171.568 144.532 169.73 154.996 167.712C154.883 165.729 154.903 163.736 154.878 161.756C152.682 161.451 149.765 161.794 148.457 159.49C146.864 156.679 146.194 153.429 144.606 150.611C142.632 146.433 139.278 142.715 134.879 141.313C131.146 140.178 127.2 140.875 123.389 141.094ZM167.857 154.748C167.619 156.829 168.532 159.616 166.641 161.123C165.349 161.925 163.717 161.499 162.3 161.742C162.279 164.934 162.439 168.133 162.182 171.32C161.877 172.375 160.666 172.62 160.009 173.37C159.053 175.998 159.716 178.833 159.848 181.551C161.082 180.787 162.39 180.047 163.215 178.785C164.901 176.567 165.416 173.739 166.528 171.23C166.865 170.42 167.956 170.478 168.578 170.135C169.884 172.294 170.048 174.881 170.707 177.278C171.523 180.221 172.156 183.21 172.942 186.164C173.116 186.724 173.284 187.333 173.714 187.75C174.715 188.335 176.412 187.804 176.382 186.405C177.394 181.961 175.834 177.476 175.561 173.037C175.469 172.406 175.501 171.477 176.15 171.147C176.994 170.578 178.15 171.256 178.36 172.206C179.382 177.314 179.92 182.56 179.363 187.771C180.126 187.976 180.891 188.064 181.684 188.09C182.458 187.676 182.923 187.036 183.08 186.169C184.324 181.427 182.944 176.538 182.995 171.742C183.071 170.901 184.123 170.456 184.809 170.83C185.417 171.108 185.625 171.83 185.789 172.439C186.647 176.609 186.617 180.908 186.39 185.148C188.052 185.093 189.367 183.834 189.636 182.165C190.015 178.888 189.474 175.576 188.847 172.365C188.623 170.961 188.057 169.556 186.927 168.673C183.122 165.524 177.97 163.915 175.302 159.452C172.938 155.543 170.751 151.508 168.155 147.752C167.381 149.968 168.035 152.446 167.857 154.748ZM127.106 176.959C131.867 180.787 137.211 184.177 140.549 189.518C141.599 191.108 142.791 193.222 141.633 195.122C140.561 196.781 138.987 197.966 137.574 199.292C137.584 199.444 137.597 199.749 137.607 199.904C145.775 204.584 153.9 209.349 162.083 214.003C163.017 214.748 164.145 214.153 165.111 213.843C174.193 210.454 183.378 207.362 192.439 203.912C181.668 198.376 170.619 193.417 159.748 188.09C156.792 186.621 153.72 185.379 150.932 183.574C151.022 182.994 151.113 182.415 151.205 181.839C152.647 181.589 154.101 181.423 155.564 181.318C155.553 178.092 155.733 174.877 156.08 171.677C146.402 173.313 136.756 175.153 127.106 176.959Z" fill="#010101"/>
<path d="M97.5997 49.5971C99.8141 48.2903 102.454 48.476 104.909 48.6378C107.701 49.1877 110.551 50.3017 112.64 52.3536C113.392 52.9725 113.473 54.0103 113.5 54.9244C110.449 54.6197 107.925 52.6059 104.964 51.9608C102.514 51.1896 99.7285 51.2253 97.5997 49.5971Z" fill="#010101"/>
<path d="M97.5511 56.6692C99.5852 57.3428 101.088 59.0758 103.14 59.697C104.257 60.1398 105.671 60.0946 106.571 61.0205C106.855 62.1822 105.551 62.7772 104.703 63.0724C101.83 63.5366 98.4364 62.325 97.1998 59.4376C96.6843 58.4759 97.1674 57.5309 97.5511 56.6692Z" fill="#010101"/>
<path d="M119.429 62.9963C121.921 62.982 124.415 63.0272 126.907 63.0963C126.632 64.046 126.271 65.0363 125.501 65.6861C123.273 66.8954 120.014 65.5766 119.429 62.9963Z" fill="#010101"/>
<path d="M99.2039 78.2902C102.981 79.6684 106.596 81.7036 110.703 81.8274C110.022 82.6367 109.407 83.727 108.293 83.9126C105.262 84.4815 102.299 82.9843 100.043 81.0347C99.1738 80.4111 99.3287 79.2376 99.2039 78.2902Z" fill="#010101"/>
<path d="M77.1061 121.558C81.2021 120.511 85.0553 123.26 87.1726 126.657C89.6112 130.247 90.5659 134.71 90.6236 139.035C90.76 143.648 89.5303 148.459 86.6248 152.046C84.4612 154.736 80.7259 156.229 77.4344 155.038C73.3084 153.675 70.5254 149.771 69.1893 145.684C67.324 139.58 67.3517 132.556 70.5508 126.917C72.0001 124.417 74.2284 122.101 77.1061 121.558ZM78.2619 132.251C77.5338 132.387 76.9143 132.91 76.5791 133.584C75.3887 135.312 75.22 137.571 75.5297 139.609C75.7285 141.223 76.341 142.846 77.5453 143.953C78.493 144.879 80.1342 144.877 81.0657 143.934C83.2107 141.68 83.1437 138.088 82.263 135.293C81.6713 133.644 80.2312 131.692 78.2619 132.251Z" fill="#010101"/>
</svg>
